<?xml version="1.0" encoding="utf-8"?>
<!-- Generator: Adobe Illustrator 27.5.0, SVG Export Plug-In . SVG Version: 6.00 Build 0)  -->
<svg version="1.1" xmlns="http://www.w3.org/2000/svg" xmlns:xlink="http://www.w3.org/1999/xlink" x="0px" y="0px"
	 viewBox="0 0 500 500" style="enable-background:new 0 0 500 500;" xml:space="preserve">
<g id="Background_Complete">
	<g>
		<g>
			<path style="fill:#EBEBEB;" d="M372.493,28.474l-5.244,55.213c-0.187,1.967,1.034,3.706,2.787,3.971l88.425,13.365
				c1.832,0.277,3.568-1.155,3.877-3.197l6.445-42.64c0.31-2.052-0.937-3.938-2.78-4.203l-54.44-7.829
				c-0.879-0.127-1.667-0.637-2.189-1.419l-7.883-11.807c-0.518-0.775-1.296-1.284-2.167-1.415l-22.925-3.465
				C374.486,24.759,372.697,26.328,372.493,28.474z"/>
		</g>
		<g>
			
				<rect x="368.292" y="37.349" transform="matrix(0.9888 0.1494 -0.1494 0.9888 15.1297 -61.5555)" style="fill:#F5F5F5;" width="97.712" height="65.089"/>
		</g>
		<g>
			<path style="fill:#EBEBEB;" d="M365.146,35.027l-2.767,68.229c-0.049,1.213,0.724,2.246,1.802,2.409l94.157,14.231
				c1.113,0.168,2.183-0.646,2.458-1.87l14.884-66.397c0.306-1.368-0.495-2.698-1.739-2.886L367.666,32.679
				C366.385,32.486,365.204,33.586,365.146,35.027z"/>
		</g>
	</g>
	<g>
		<g>
			<path style="fill:#EBEBEB;" d="M216.91,372.948l-11.952,38.348c-0.426,1.366,0.228,2.802,1.491,3.278l63.749,24.018
				c1.321,0.498,2.819-0.234,3.347-1.633l11.01-29.222c0.53-1.406-0.122-2.951-1.452-3.441l-39.306-14.503
				c-0.635-0.234-1.145-0.726-1.419-1.367l-4.134-9.68c-0.271-0.636-0.776-1.125-1.404-1.361l-16.528-6.227
				C218.932,370.637,217.374,371.457,216.91,372.948z"/>
		</g>
		<g>
			
				<rect x="206.828" y="386.132" transform="matrix(0.9358 0.3526 -0.3526 0.9358 160.1172 -59.734)" style="fill:#F5F5F5;" width="74.433" height="47.132"/>
		</g>
		<g>
			<path style="fill:#EBEBEB;" d="M210.494,376.394l-12.01,47.998c-0.214,0.853,0.21,1.714,0.987,2.007l67.882,25.575
				c0.803,0.302,1.717-0.1,2.099-0.924l20.746-44.707c0.427-0.921,0.026-1.998-0.871-2.336l-76.618-28.866
				C211.786,374.793,210.748,375.38,210.494,376.394z"/>
		</g>
	</g>
	<g>
		<g>
			<path style="fill:#EBEBEB;" d="M43.696,52.013l2.682,43.453c0.096,1.548,1.379,2.754,2.93,2.754h78.227
				c1.621,0,2.935-1.314,2.935-2.935l0-33.839c0-1.628-1.325-2.945-2.954-2.935l-48.109,0.31c-0.777,0.005-1.525-0.299-2.078-0.844
				l-8.361-8.236c-0.549-0.541-1.289-0.844-2.06-0.844H46.625C44.933,48.897,43.592,50.324,43.696,52.013z"/>
		</g>
		<g>
			<rect x="44.997" y="53.376" style="fill:#F5F5F5;" width="85.472" height="51.074"/>
		</g>
		<g>
			<path style="fill:#EBEBEB;" d="M38.198,57.958l6.526,53.261c0.116,0.947,0.92,1.658,1.873,1.658l83.298,0
				c0.985,0,1.804-0.757,1.882-1.739l4.194-53.261c0.086-1.097-0.781-2.035-1.882-2.035l-94.017,0
				C38.938,55.842,38.06,56.833,38.198,57.958z"/>
		</g>
	</g>
	<g>
		<g>
			<g>
				<path style="fill:#EBEBEB;" d="M52.813,299.155c0,0-6.338-0.456-5.755,13.762c0.583,14.218,2.034,21.791,2.034,21.791
					s-0.186,3.153-2.628,2.534c-2.442-0.619-7.035-3.687-9.303-1.393c-2.353,2.379-1.516,6.027,1.605,10.324
					c3.121,4.297,9.612,13.963,10.196,14.839c0.573,0.86,0.803,2.473-0.928,2.318c-1.731-0.155-13.413-4.115-14.96,1.541
					c-1.547,5.656,9.114,16.199,10.257,17.374c1.143,1.175,1.205,1.917,0.741,2.627c-0.464,0.711-4.265-0.99-7.634-1.98
					c-3.369-0.99-7.449-1.547-8.068,1.791c-0.619,3.338,4.077,13.106,21.661,23.373l8.459,4.224l8.007-5.107
					c16.469-11.974,20.164-22.163,19.214-25.423c-0.95-3.259-4.954-2.297-8.206-0.975c-3.253,1.322-6.865,3.395-7.398,2.734
					c-0.533-0.661-0.545-1.405,0.475-2.688c1.02-1.283,10.573-12.84,8.468-18.313c-2.105-5.473-13.333-0.365-15.04-0.037
					c-1.707,0.327-1.639-1.3-1.155-2.214c0.493-0.93,5.985-11.197,8.66-15.784c2.675-4.588,3.143-8.301,0.564-10.433
					c-2.487-2.055-6.75,1.457-9.117,2.317c-2.368,0.86-2.868-2.258-2.868-2.258s0.686-7.68-0.156-21.886
					c-0.842-14.205-7.255-13.059-7.255-13.059"/>
			</g>
			<g>
				<g>
					<path style="fill:#E0E0E0;" d="M53.314,311.89c0,0,0.017,0.1,0.034,0.297c0.016,0.211,0.038,0.5,0.067,0.873
						c0.053,0.783,0.13,1.911,0.228,3.358c0.194,2.916,0.444,7.138,0.732,12.355c0.58,10.435,1.258,24.856,1.953,40.786
						c0.696,15.935,1.338,30.358,1.859,40.795c0.265,5.207,0.479,9.426,0.629,12.359c0.072,1.448,0.128,2.577,0.167,3.361
						c0.015,0.373,0.027,0.664,0.035,0.874c0.006,0.197,0.001,0.299,0.001,0.299s-0.017-0.1-0.034-0.297
						c-0.016-0.21-0.039-0.5-0.067-0.872c-0.053-0.783-0.13-1.911-0.228-3.357c-0.194-2.916-0.444-7.137-0.731-12.355
						c-0.58-10.435-1.258-24.858-1.954-40.792c-0.696-15.929-1.337-30.351-1.859-40.788c-0.265-5.207-0.48-9.427-0.629-12.36
						c-0.072-1.448-0.128-2.578-0.167-3.361c-0.015-0.373-0.027-0.664-0.035-0.875C53.309,311.991,53.314,311.89,53.314,311.89z"/>
				</g>
			</g>
			<g>
				<g>
					<path style="fill:#E0E0E0;" d="M43.414,340.4c0.016-0.016,0.202,0.141,0.526,0.438c0.326,0.296,0.783,0.738,1.342,1.289
						c1.116,1.106,2.618,2.674,4.242,4.435c1.589,1.739,3.026,3.311,4.138,4.527c0.494,0.535,0.914,0.991,1.259,1.365
						c0.298,0.322,0.456,0.507,0.441,0.523c-0.016,0.016-0.203-0.139-0.53-0.434c-0.325-0.297-0.782-0.739-1.336-1.297
						c-1.106-1.117-2.586-2.704-4.21-4.465c-1.601-1.726-3.048-3.288-4.168-4.495c-0.497-0.533-0.92-0.987-1.267-1.36
						C43.555,340.603,43.398,340.416,43.414,340.4z"/>
				</g>
			</g>
			<g>
				<g>
					<path style="fill:#E0E0E0;" d="M56.201,352.699c-0.064-0.063,3.03-3.303,6.909-7.236c3.881-3.934,7.077-7.072,7.141-7.009
						c0.064,0.063-3.029,3.302-6.91,7.236C59.462,349.624,56.264,352.762,56.201,352.699z"/>
				</g>
			</g>
			<g>
				<g>
					<path style="fill:#E0E0E0;" d="M56.166,377.214c-0.01-0.02,0.2-0.152,0.59-0.375c0.452-0.254,1.004-0.564,1.655-0.929
						c1.396-0.785,3.321-1.875,5.401-3.153c2.084-1.275,3.931-2.492,5.261-3.383c0.621-0.414,1.148-0.765,1.579-1.053
						c0.375-0.246,0.588-0.374,0.601-0.356c0.013,0.018-0.175,0.18-0.528,0.458c-0.353,0.278-0.87,0.669-1.521,1.139
						c-1.3,0.941-3.132,2.193-5.223,3.471c-2.087,1.283-4.035,2.345-5.462,3.079c-0.715,0.364-1.297,0.652-1.705,0.839
						C56.406,377.139,56.176,377.234,56.166,377.214z"/>
				</g>
			</g>
			<g>
				<g>
					<path style="fill:#E0E0E0;" d="M42.152,368.635c0.011-0.019,0.219,0.079,0.585,0.275c0.366,0.195,0.89,0.486,1.534,0.852
						c1.288,0.732,3.056,1.762,4.998,2.917c1.943,1.155,3.692,2.217,4.95,2.999c0.629,0.391,1.135,0.712,1.481,0.941
						c0.346,0.228,0.532,0.364,0.52,0.383c-0.011,0.019-0.219-0.079-0.585-0.275c-0.366-0.195-0.89-0.486-1.534-0.852
						c-1.288-0.732-3.056-1.762-4.998-2.917c-1.942-1.155-3.691-2.216-4.949-2.999c-0.629-0.391-1.135-0.712-1.481-0.941
						C42.326,368.789,42.14,368.654,42.152,368.635z"/>
				</g>
			</g>
			<g>
				<g>
					<path style="fill:#E0E0E0;" d="M39.371,390.273c0.011-0.019,0.276,0.11,0.744,0.36c0.521,0.287,1.181,0.652,1.969,1.086
						c1.655,0.929,3.931,2.232,6.434,3.689c2.504,1.457,4.762,2.792,6.387,3.771c0.767,0.47,1.41,0.864,1.917,1.175
						c0.449,0.284,0.692,0.45,0.681,0.469c-0.011,0.019-0.276-0.11-0.744-0.36c-0.521-0.287-1.181-0.651-1.969-1.086
						c-1.655-0.929-3.931-2.232-6.435-3.689c-2.503-1.457-4.761-2.791-6.386-3.771c-0.767-0.47-1.41-0.864-1.917-1.175
						C39.603,390.458,39.36,390.292,39.371,390.273z"/>
				</g>
			</g>
			<g>
				<g>
					<path style="fill:#E0E0E0;" d="M57.141,400.448c-0.011-0.019,0.252-0.194,0.736-0.493c0.538-0.328,1.229-0.748,2.056-1.252
						c1.735-1.058,4.127-2.526,6.723-4.219c2.599-1.69,4.912-3.281,6.58-4.443c0.796-0.553,1.46-1.014,1.977-1.373
						c0.469-0.322,0.734-0.492,0.748-0.474c0.013,0.018-0.227,0.222-0.673,0.575c-0.446,0.353-1.1,0.854-1.918,1.458
						c-1.635,1.211-3.932,2.834-6.536,4.528c-2.601,1.697-5.017,3.137-6.784,4.146c-0.885,0.502-1.605,0.9-2.11,1.164
						C57.436,400.331,57.152,400.468,57.141,400.448z"/>
				</g>
			</g>
		</g>
		<g>
			<g>
				<g>
					<polygon style="fill:#E0E0E0;" points="69.855,415.048 46.452,415.048 54.09,472.87 62.217,472.87 					"/>
				</g>
			</g>
			<g>
				<g>
					<g>
						<path style="fill:#F5F5F5;" d="M47.666,422.156c-0.009,0.006,0.026,0.082,0.125,0.206c0.1,0.123,0.283,0.283,0.565,0.404
							c0.555,0.242,1.529,0.261,2.472-0.304c0.945-0.521,1.768-1.545,3.035-1.998c1.256-0.48,2.812-0.394,4.304,0.085
							c1.509,0.467,2.82,1.23,4.008,1.942c1.19,0.708,2.281,1.34,3.259,1.749c0.971,0.424,1.817,0.62,2.403,0.695
							c0.294,0.039,0.523,0.051,0.679,0.046c0.156,0,0.237-0.007,0.237-0.02c0.013-0.076-1.325-0.065-3.21-0.968
							c-0.945-0.432-2.006-1.078-3.187-1.803c-1.175-0.726-2.517-1.523-4.076-2.005c-1.54-0.495-3.195-0.585-4.542-0.049
							c-0.673,0.257-1.238,0.659-1.71,1.057c-0.478,0.395-0.906,0.768-1.34,1.038c-0.856,0.553-1.755,0.576-2.279,0.396
							C47.869,422.439,47.696,422.123,47.666,422.156z"/>
					</g>
				</g>
			</g>
			<g>
				<g>
					<g>
						<path style="fill:#F5F5F5;" d="M48.52,432.805c0.031,0.019,0.185-0.238,0.551-0.62c0.372-0.371,0.982-0.857,1.869-1.186
							c0.878-0.337,2.006-0.537,3.254-0.49c1.254,0.043,2.62,0.319,4.073,0.555c1.45,0.244,2.887,0.353,4.17,0.173
							c1.283-0.164,2.397-0.534,3.281-0.937c0.886-0.404,1.542-0.847,1.973-1.173c0.432-0.327,0.638-0.547,0.625-0.562
							c-0.044-0.063-0.948,0.746-2.706,1.488c-0.877,0.362-1.969,0.694-3.215,0.835c-1.246,0.155-2.626,0.041-4.068-0.201
							c-1.441-0.234-2.829-0.504-4.122-0.529c-1.295-0.029-2.463,0.207-3.366,0.591c-0.912,0.375-1.528,0.921-1.878,1.336
							c-0.168,0.216-0.291,0.389-0.354,0.519C48.539,432.73,48.509,432.799,48.52,432.805z"/>
					</g>
				</g>
			</g>
			<g>
				<g>
					<g>
						<path style="fill:#F5F5F5;" d="M67.204,438.506c0.009-0.017-0.208-0.164-0.645-0.335c-0.436-0.172-1.101-0.349-1.939-0.416
							c-0.838-0.067-1.843-0.013-2.932,0.168c-1.092,0.177-2.261,0.478-3.49,0.739c-1.228,0.259-2.412,0.433-3.485,0.394
							c-1.073-0.038-2.026-0.272-2.767-0.599c-1.506-0.661-2.042-1.623-2.099-1.562c-0.015,0.009,0.092,0.25,0.396,0.611
							c0.301,0.36,0.828,0.82,1.589,1.196c0.759,0.373,1.749,0.646,2.865,0.705c1.119,0.06,2.337-0.11,3.579-0.371
							c1.242-0.264,2.403-0.574,3.471-0.766c1.067-0.196,2.042-0.275,2.857-0.245C66.247,438.08,67.18,438.577,67.204,438.506z"/>
					</g>
				</g>
			</g>
			<g>
				<g>
					<g>
						<path style="fill:#F5F5F5;" d="M50.588,446.526c0.011,0.061,0.835-0.521,2.272-0.229c0.704,0.127,1.492,0.484,2.377,0.886
							c0.882,0.411,1.945,0.763,3.086,0.851c2.299,0.221,4.344-0.522,5.599-1.297c0.642-0.381,1.09-0.791,1.393-1.072
							c0.285-0.303,0.431-0.478,0.412-0.496c-0.051-0.056-0.666,0.636-1.941,1.334c-1.253,0.694-3.227,1.363-5.429,1.15
							c-2.216-0.126-3.917-1.448-5.453-1.623c-0.749-0.112-1.375-0.005-1.765,0.153C50.744,446.338,50.577,446.512,50.588,446.526z"
							/>
					</g>
				</g>
			</g>
			<g>
				<g>
					<g>
						<path style="fill:#F5F5F5;" d="M51.892,457.624c0,0.044,0.785,0.039,1.951-0.388c1.176-0.393,2.632-1.295,4.333-1.971
							c0.853-0.325,1.708-0.525,2.487-0.521c0.778,0.004,1.473,0.194,2,0.456c1.075,0.535,1.386,1.296,1.446,1.247
							c0.017-0.007-0.031-0.198-0.222-0.493c-0.189-0.294-0.547-0.677-1.096-0.992c-0.548-0.313-1.284-0.546-2.122-0.57
							c-0.839-0.024-1.744,0.179-2.628,0.516c-1.762,0.702-3.172,1.631-4.296,2.076C52.635,457.464,51.883,457.563,51.892,457.624z"
							/>
					</g>
				</g>
			</g>
			<g>
				<g>
					<g>
						<path style="fill:#F5F5F5;" d="M53.039,462.788c-0.012,0.048,0.548,0.25,1.482,0.481c0.933,0.232,2.242,0.48,3.704,0.624
							c1.463,0.143,2.795,0.155,3.755,0.109c0.961-0.045,1.55-0.134,1.547-0.183c-0.006-0.116-2.372-0.014-5.265-0.305
							C55.369,463.236,53.067,462.676,53.039,462.788z"/>
					</g>
				</g>
			</g>
		</g>
	</g>
</g>
<g id="Background_Simple" style="display:none;">
	<g style="display:inline;">
		<path style="fill:#F5F5F5;" d="M469.078,191.745l-1.962-3.233c-16.538-27.254-46.44-43.683-77.967-41.689
			c-4.052,0.256-8.088,0.805-12.069,1.657c-28.664,6.136-53.605,27.812-63.943,55.572c-6.08,16.326-7.779,35.124-19.316,48.083
			c-15.016,16.866-40.509,17.395-62.923,16.697c-22.413-0.699-47.924-0.103-62.867,16.829
			c-9.358,10.604-12.333,25.684-11.578,39.886c1.998,37.599,28.197,71.218,61.516,87.928c33.319,16.71,72.549,18.207,109.014,10.856
			c51.084-10.298,99.665-38.577,128.866-82.256C485.051,298.396,492.441,238.888,469.078,191.745z"/>
	</g>
	<g style="display:inline;">
		
			<ellipse transform="matrix(0.7071 -0.7071 0.7071 0.7071 -34.3628 120.5227)" style="fill:#F5F5F5;" cx="128.302" cy="101.741" rx="75.244" ry="75.244"/>
	</g>
</g>
<g id="Window">
	<g>
		<rect x="97.945" y="71.81" style="fill:#FFFFFF;" width="331.83" height="291.823"/>
	</g>
	<g>
		<g>
			<path style="fill:#263238;" d="M429.774,363.633c-0.001-1.855-0.088-116.178-0.22-291.822l0.22,0.22
				c-95.43,0.012-209.508,0.025-331.8,0.04h-0.03l0.26-0.26c-0.011,106.058-0.022,205.923-0.031,291.822l-0.23-0.23
				C295.998,363.54,427.784,363.631,429.774,363.633c-1.989,0.001-133.776,0.093-331.83,0.23l-0.23,0v-0.23
				c-0.009-85.899-0.019-185.765-0.031-291.822V71.55h0.26h0.03c122.292,0.015,236.369,0.029,331.8,0.04h0.22l0,0.22
				C429.862,247.455,429.776,361.779,429.774,363.633z"/>
		</g>
	</g>
	<g>
		<g>
			<path style="fill:#FF725E;" d="M169.234,146.443v52.337h63.616v-52.337c0-2.492-2.02-4.511-4.511-4.511h-54.594
				C171.254,141.932,169.234,143.952,169.234,146.443z"/>
		</g>
		<g>
			<path style="fill:#FF725E;" d="M156.46,236.01l14.21-39.085l62.181,1.856l-9.269,35.649c-0.368,1.413-1.658,2.389-3.118,2.358
				l-16.106-0.342l-2.642,3.755c-0.695,0.988-1.845,1.555-3.052,1.504l-38.921-1.644C157.746,240.06,156.204,238.157,156.46,236.01z
				"/>
		</g>
		<g>
			<g>
				<polygon style="fill:#F5F5F5;" points="172.642,151.142 172.642,156.498 172.642,192.101 228.557,195.179 228.311,151.142 				
					"/>
			</g>
			<g>
				<g>
					<path style="fill:#263238;" d="M172.642,151.142c-0.005-0.005,0.079-0.009,0.249-0.014c0.19-0.003,0.44-0.008,0.762-0.014
						c0.701-0.007,1.702-0.016,2.994-0.028c2.656-0.014,6.504-0.036,11.37-0.062c9.829-0.029,23.766-0.069,40.295-0.117l0.233-0.001
						l0.001,0.234c0.079,12.768,0.169,27.302,0.264,42.658c0.003,0.464,0.005,0.928,0.008,1.379l0.001,0.277l-0.276-0.015
						c-20.928-1.171-40.255-2.252-55.912-3.128l-0.2-0.011l0.001-0.2c0.038-12.422,0.069-22.656,0.091-29.808
						c0.026-3.557,0.047-6.346,0.061-8.271c0.015-0.93,0.026-1.65,0.034-2.16C172.627,151.378,172.642,151.142,172.642,151.142
						s0.015,0.267,0.025,0.76c0.008,0.511,0.02,1.232,0.034,2.164c0.014,1.914,0.035,4.689,0.061,8.227
						c0.022,7.152,0.053,17.386,0.091,29.808l-0.199-0.211c15.658,0.848,34.987,1.895,55.917,3.029l-0.275,0.261
						c-0.002-0.451-0.005-0.915-0.008-1.379c-0.076-15.357-0.149-29.89-0.212-42.658l0.234,0.233
						c-16.466-0.048-30.35-0.088-40.142-0.117c-4.889-0.027-8.755-0.048-11.423-0.062c-1.312-0.012-2.328-0.021-3.04-0.028
						c-0.333-0.006-0.591-0.01-0.788-0.014C172.74,151.151,172.647,151.146,172.642,151.142z"/>
				</g>
			</g>
		</g>
		<g>
			<g>
				<path style="fill:#EBEBEB;" d="M175.566,161.359c0.05-1.364,0-7.221,0-7.221c15.631-0.048,33.141,0.063,48.772,0.014
					c0.438,7.734,0.529,18.18,0.967,25.914"/>
			</g>
			<g>
				<g>
					<path style="fill:#E0E0E0;" d="M225.305,180.066c-0.014,0.001-0.036-0.166-0.066-0.488c-0.028-0.365-0.065-0.834-0.111-1.42
						c-0.086-1.241-0.182-3.056-0.28-5.346c-0.214-4.579-0.339-11.065-0.752-18.646l0.242,0.228
						c-4.632,0.004-9.711,0.009-15.028,0.014c-14.014-0.004-26.383-0.052-33.744-0.123l0.147-0.148
						c-0.029,2.244-0.052,4.038-0.069,5.325c-0.016,0.582-0.029,1.049-0.038,1.412c-0.013,0.32-0.027,0.486-0.04,0.485
						c-0.014,0-0.027-0.167-0.04-0.488c-0.01-0.363-0.022-0.83-0.038-1.413c-0.017-1.285-0.04-3.077-0.069-5.319l-0.002-0.147
						l0.149-0.001c7.36-0.066,19.729-0.107,33.743-0.103c5.317,0.008,10.396,0.016,15.028,0.022l0.231,0l0.011,0.228
						c0.375,7.601,0.434,14.084,0.564,18.664c0.06,2.251,0.108,4.054,0.142,5.348c0.014,0.587,0.025,1.058,0.034,1.423
						C225.323,179.897,225.319,180.065,225.305,180.066z"/>
				</g>
			</g>
		</g>
		<g>
			<g>
				<polygon style="fill:#FFFFFF;" points="164.096,161.541 175.633,195.179 228.557,195.179 220.65,161.359 				"/>
			</g>
			<g>
				<g>
					<path style="fill:#263238;" d="M164.096,161.541c-0.006-0.004,0.08-0.008,0.254-0.013c0.197-0.004,0.453-0.008,0.783-0.015
						c0.722-0.008,1.75-0.02,3.074-0.036c2.728-0.024,6.67-0.058,11.633-0.101c10.039-0.064,24.202-0.154,40.809-0.26l0.192-0.001
						l0.044,0.188c2.341,9.99,4.913,20.96,7.605,32.448c0.108,0.461,0.215,0.921,0.32,1.368l0.075,0.32l-0.328,0
						c-19.977-0.02-38.355-0.039-52.923-0.053l-0.149,0l-0.047-0.14c-3.479-10.296-6.331-18.737-8.322-24.629
						c-0.971-2.899-1.732-5.169-2.258-6.74c-0.248-0.751-0.441-1.333-0.579-1.751C164.15,161.734,164.096,161.541,164.096,161.541
						s0.087,0.217,0.232,0.621c0.151,0.424,0.361,1.017,0.632,1.78c0.553,1.576,1.352,3.853,2.372,6.761
						c2.033,5.839,4.944,14.205,8.496,24.409l-0.196-0.14c14.569-0.015,32.947-0.033,52.923-0.053l-0.253,0.32
						c-0.104-0.447-0.212-0.907-0.32-1.368c-2.68-11.49-5.239-22.464-7.569-32.456l0.236,0.187
						c-16.53,0.001-30.628,0.002-40.62,0.002c-4.992-0.011-8.957-0.02-11.7-0.026c-1.348-0.007-2.396-0.012-3.131-0.016
						c-0.343-0.004-0.61-0.007-0.815-0.009C164.199,161.549,164.102,161.545,164.096,161.541z"/>
				</g>
			</g>
		</g>
		<g style="opacity:0.3;">
			<g>
				<path d="M228.492,195.882c-0.34-0.313-0.874-0.217-1.32-0.099c-20.68,5.426-40.513,14.065-58.57,25.511l-7.427,8.592
					c0.94,1.477,2.95,1.738,4.696,1.852c8.312,0.542,16.624,1.083,24.936,1.625c5.798,0.378,11.602,0.756,17.412,0.736
					c3.447-0.012,7.22-0.293,9.732-2.653c1.476-1.387,2.304-3.314,3.047-5.198c3.691-9.358,6.288-19.146,7.721-29.103
					C228.785,196.703,228.82,196.184,228.492,195.882z"/>
			</g>
		</g>
		<g>
			<g>
				<polygon style="fill:#F5F5F5;" points="175.633,197.836 160.838,229.829 216.377,230.939 228.557,195.179 				"/>
			</g>
			<g>
				<g>
					<path style="fill:#263238;" d="M175.633,197.836c-0.004-0.005,0.077-0.015,0.24-0.029c0.184-0.013,0.423-0.031,0.73-0.053
						c0.673-0.041,1.629-0.1,2.861-0.176c2.537-0.143,6.207-0.349,10.839-0.609c9.355-0.495,22.596-1.197,38.242-2.026l0.348-0.018
						l-0.113,0.331c-3.675,10.811-7.805,22.962-12.157,35.768l-0.061,0.18l-0.19-0.004l-0.01,0
						c-21.023-0.441-40.374-0.847-55.527-1.165l-0.316-0.007l0.133-0.285c4.561-9.764,8.294-17.756,10.898-23.331
						c1.294-2.743,2.308-4.891,3.008-6.376c0.34-0.709,0.604-1.258,0.793-1.652C175.532,198.014,175.633,197.836,175.633,197.836
						s-0.078,0.211-0.247,0.598c-0.18,0.405-0.432,0.97-0.757,1.699c-0.681,1.502-1.666,3.675-2.923,6.45
						c-2.552,5.575-6.211,13.567-10.681,23.331l-0.182-0.292c15.153,0.288,34.505,0.656,55.529,1.056l0.01,0l-0.251,0.176
						c4.369-12.8,8.514-24.946,12.202-35.752l0.236,0.313c-15.606,0.74-28.812,1.367-38.144,1.81
						c-4.651,0.206-8.334,0.368-10.882,0.481c-1.248,0.048-2.216,0.086-2.898,0.113c-0.315,0.009-0.561,0.016-0.751,0.021
						C175.725,197.843,175.637,197.842,175.633,197.836z"/>
				</g>
			</g>
		</g>
		<g>
			<g>
				<polygon style="fill:#FAFAFA;" points="175.387,195.179 159.338,212.851 214.511,213.268 228.311,195.179 				"/>
			</g>
			<g>
				<g>
					<path style="fill:#263238;" d="M175.387,195.179c-0.003-0.007,0.081-0.013,0.247-0.02c0.19-0.005,0.436-0.011,0.746-0.019
						c0.689-0.009,1.662-0.021,2.91-0.037c2.578-0.017,6.291-0.04,10.952-0.071c9.415-0.025,22.652-0.06,38.069-0.1l0.5-0.001
						l-0.303,0.398c-4.283,5.621-8.945,11.739-13.79,18.096l-0.079,0.103l-0.13-0.001c-0.531-0.004-1.106-0.008-1.682-0.013
						c-20.788-0.185-39.657-0.353-53.49-0.476l-0.423-0.004l0.285-0.31c4.98-5.428,9.017-9.828,11.83-12.894
						c1.384-1.493,2.466-2.659,3.222-3.475c0.356-0.377,0.635-0.672,0.842-0.891C175.284,195.268,175.384,195.171,175.387,195.179
						c0.004,0.008-0.088,0.122-0.272,0.337c-0.201,0.23-0.472,0.541-0.819,0.938c-0.742,0.835-1.805,2.029-3.164,3.557
						c-2.771,3.083-6.749,7.508-11.656,12.967l-0.138-0.314c13.834,0.086,32.703,0.202,53.491,0.331
						c0.576,0.004,1.151,0.009,1.682,0.013l-0.209,0.102c4.852-6.351,9.521-12.464,13.811-18.08l0.196,0.397
						c-15.38-0.041-28.586-0.076-37.978-0.1c-4.673-0.03-8.396-0.054-10.981-0.071c-1.261-0.016-2.243-0.028-2.938-0.037
						c-0.317-0.008-0.568-0.014-0.762-0.019C175.48,195.192,175.39,195.186,175.387,195.179z"/>
				</g>
			</g>
		</g>
		<g>
			<g>
				<polyline style="fill:#F5F5F5;" points="173.647,179.777 168.907,165.012 218.085,165.012 224.976,192.01 				"/>
			</g>
			<g>
				<g>
					<path style="fill:#263238;" d="M224.976,192.01c-0.013,0.003-0.07-0.167-0.168-0.498c-0.104-0.37-0.241-0.856-0.413-1.466
						c-0.356-1.33-0.857-3.198-1.484-5.538c-1.249-4.8-3-11.528-5.058-19.436l0.231,0.18c-5.631,0.007-11.86,0.014-18.408,0.021
						c-11.853-0.026-22.662-0.049-30.77-0.066l0.185-0.253c1.417,4.531,2.57,8.219,3.384,10.823c0.378,1.25,0.677,2.238,0.895,2.957
						c0.089,0.314,0.161,0.568,0.22,0.774c0.046,0.175,0.066,0.267,0.057,0.27c-0.009,0.003-0.047-0.083-0.111-0.252
						c-0.072-0.201-0.162-0.45-0.272-0.757c-0.242-0.711-0.574-1.689-0.994-2.925c-0.853-2.591-2.062-6.261-3.548-10.771
						l-0.083-0.253l0.268-0.001c8.108-0.018,18.916-0.041,30.77-0.066c6.548,0.008,12.777,0.015,18.408,0.021l0.187,0l0.045,0.18
						c1.984,7.928,3.671,14.671,4.875,19.483c0.571,2.354,1.027,4.234,1.352,5.572c0.142,0.618,0.254,1.109,0.34,1.484
						C224.958,191.83,224.989,192.007,224.976,192.01z"/>
				</g>
			</g>
		</g>
		<g>
			<path style="fill:#FFFFFF;" d="M202.836,177.012c-0.766-0.626-1.558-1.267-2.505-1.554c-1.845-0.559-3.833,0.357-5.313,1.593
				c-1.48,1.236-2.674,2.804-4.247,3.918l17.246,0.28C206.29,179.836,204.563,178.424,202.836,177.012z"/>
		</g>
		<g>
			<path style="fill:#FFFFFF;" d="M211.874,171.838c-0.622-0.927-2.676-2.08-4.024-1.221l0.005,0c-0.86,0.32-1.584,1.1-1.71,2.025
				c-0.205,1.499,0.996,2.986,2.476,3.298c1.092,0.23,2.314-0.132,3.031-0.988C212.369,174.096,212.496,172.764,211.874,171.838z"/>
		</g>
		<g>
			<g>
				<polygon style="fill:#FAFAFA;" points="175.387,195.179 158.839,179.777 213,180.216 228.557,195.179 				"/>
			</g>
			<g>
				<g>
					<path style="fill:#263238;" d="M175.387,195.179c0.003-0.007,0.092-0.014,0.266-0.02c0.196-0.005,0.449-0.012,0.768-0.02
						c0.701-0.009,1.691-0.022,2.96-0.038c2.604-0.017,6.352-0.041,11.052-0.072c9.448-0.024,22.717-0.059,38.125-0.099
						l-0.172,0.427c-4.85-4.66-10.111-9.714-15.564-14.955l0.178,0.073c-0.317-0.003-0.66-0.005-1.004-0.008
						c-20.717-0.197-39.488-0.376-53.156-0.506l0.128-0.321c5.064,4.763,9.168,8.624,12.029,11.315
						c1.402,1.333,2.498,2.376,3.266,3.106c0.357,0.346,0.637,0.618,0.845,0.821C175.295,195.07,175.391,195.171,175.387,195.179
						c-0.003,0.008-0.105-0.075-0.302-0.247c-0.214-0.191-0.501-0.447-0.867-0.773c-0.78-0.711-1.894-1.725-3.318-3.022
						c-2.899-2.67-7.058-6.5-12.188-11.225l-0.352-0.324l0.48,0.003c13.669,0.092,32.439,0.217,53.157,0.356
						c0.344,0.003,0.688,0.006,1.004,0.008l0.104,0.001l0.075,0.072c5.448,5.246,10.703,10.306,15.548,14.972l0.446,0.429
						l-0.618-0.001c-15.441-0.04-28.739-0.074-38.207-0.099c-4.688-0.03-8.427-0.055-11.025-0.072
						c-1.258-0.016-2.239-0.029-2.934-0.038c-0.313-0.008-0.561-0.015-0.753-0.02C175.469,195.193,175.385,195.186,175.387,195.179z
						"/>
				</g>
			</g>
		</g>
		<g>
			<g>
				<path style="fill:#FAFAFA;" d="M173.02,185.698c11.834,0,23.668,0,35.502,0"/>
			</g>
			<g>
				<g>
					<path style="fill:#263238;" d="M208.522,185.698c0,0.144-7.948,0.26-17.75,0.26c-9.805,0-17.752-0.117-17.752-0.26
						s7.946-0.26,17.752-0.26C200.574,185.438,208.522,185.555,208.522,185.698z"/>
				</g>
			</g>
		</g>
		<g>
			<g>
				<path style="fill:#FAFAFA;" d="M176.946,189.36c11.834,0,23.668,0,35.502,0"/>
			</g>
			<g>
				<g>
					<path style="fill:#263238;" d="M212.448,189.36c0,0.144-7.948,0.26-17.75,0.26c-9.805,0-17.752-0.117-17.752-0.26
						c0-0.144,7.946-0.26,17.752-0.26C204.5,189.1,212.448,189.217,212.448,189.36z"/>
				</g>
			</g>
		</g>
		<g>
			<g>
				<path style="fill:#FAFAFA;" d="M180.474,192.889c11.834,0,23.668,0,35.502,0"/>
			</g>
			<g>
				<g>
					<path style="fill:#263238;" d="M215.977,192.888c0,0.144-7.948,0.26-17.75,0.26c-9.805,0-17.752-0.117-17.752-0.26
						c0-0.144,7.946-0.26,17.752-0.26C208.028,192.628,215.977,192.745,215.977,192.888z"/>
				</g>
			</g>
		</g>
		<g>
			<g>
				<path style="fill:#FAFAFA;" d="M174.91,207.036c12.213,0,24.427,0,36.64,0"/>
			</g>
			<g>
				<g>
					<path style="fill:#263238;" d="M211.55,207.036c0,0.144-8.203,0.26-18.319,0.26c-10.12,0-18.321-0.117-18.321-0.26
						s8.201-0.26,18.321-0.26C203.347,206.775,211.55,206.892,211.55,207.036z"/>
				</g>
			</g>
		</g>
		<g>
			<g>
				<path style="fill:#FAFAFA;" d="M179.08,202.866c12.213,0,24.427,0,36.64,0"/>
			</g>
			<g>
				<g>
					<path style="fill:#263238;" d="M215.72,202.866c0,0.144-8.203,0.26-18.319,0.26c-10.12,0-18.321-0.117-18.321-0.26
						c0-0.144,8.201-0.26,18.321-0.26C207.517,202.605,215.72,202.722,215.72,202.866z"/>
				</g>
			</g>
		</g>
	</g>
	<g>
		<g>
			<path style="fill:#263238;" d="M430.737,101.741c0,0.144-73.675,0.261-164.537,0.261c-90.893,0-164.553-0.117-164.553-0.261
				c0-0.144,73.659-0.26,164.553-0.26C357.062,101.481,430.737,101.597,430.737,101.741z"/>
		</g>
	</g>
	<g>
		<g>
			<path style="fill:#FF725E;" d="M120.528,88.079c0,1.881-1.525,3.405-3.405,3.405c-1.881,0-3.405-1.525-3.405-3.405
				c0-1.881,1.525-3.405,3.405-3.405C119.003,84.674,120.528,86.198,120.528,88.079z"/>
		</g>
		<g>
			<path style="fill:#FF725E;" d="M131.708,88.079c0,1.881-1.525,3.405-3.406,3.405c-1.881,0-3.405-1.525-3.405-3.405
				c0-1.881,1.525-3.405,3.405-3.405C130.183,84.674,131.708,86.198,131.708,88.079z"/>
		</g>
		<g>
			<path style="fill:#FF725E;" d="M142.888,88.079c0,1.881-1.525,3.405-3.405,3.405c-1.881,0-3.405-1.525-3.405-3.405
				c0-1.881,1.525-3.405,3.405-3.405C141.363,84.674,142.888,86.198,142.888,88.079z"/>
		</g>
	</g>
	<g>
		<path style="fill:#263238;" d="M247.222,94.076l-0.012-5.185l-2.543,4.271h-0.901l-2.53-4.16v5.074h-1.877v-8.641h1.654
			l3.234,5.37l3.185-5.37h1.642l0.025,8.641H247.222z"/>
		<path style="fill:#263238;" d="M257.605,87.435l-2.999,7.048c-0.643,1.605-1.556,2.086-2.753,2.086
			c-0.68,0-1.42-0.222-1.852-0.605l0.703-1.37c0.296,0.259,0.704,0.42,1.086,0.42c0.531,0,0.827-0.234,1.087-0.827l0.024-0.062
			l-2.876-6.69h1.987l1.864,4.505l1.876-4.505H257.605z"/>
		<path style="fill:#263238;" d="M267.519,87.04v2.284h4v1.604h-4v3.148h-2v-8.641h6.53v1.605H267.519z"/>
		<path style="fill:#263238;" d="M272.915,85.435c0-0.605,0.481-1.074,1.197-1.074c0.716,0,1.197,0.444,1.197,1.037
			c0,0.642-0.481,1.111-1.197,1.111C273.396,86.51,272.915,86.04,272.915,85.435z M273.149,87.435h1.926v6.641h-1.926V87.435z"/>
		<path style="fill:#263238;" d="M276.865,84.917h1.926v9.16h-1.926V84.917z"/>
		<path style="fill:#263238;" d="M287.05,91.299h-5.024c0.186,0.827,0.889,1.333,1.901,1.333c0.703,0,1.21-0.21,1.666-0.642
			l1.024,1.111c-0.617,0.704-1.543,1.074-2.74,1.074c-2.296,0-3.789-1.444-3.789-3.419c0-1.987,1.518-3.419,3.542-3.419
			c1.951,0,3.457,1.308,3.457,3.444C287.087,90.928,287.062,91.138,287.05,91.299z M282.002,90.176h3.272
			c-0.136-0.839-0.766-1.382-1.63-1.382C282.767,88.793,282.137,89.324,282.002,90.176z"/>
		<path style="fill:#263238;" d="M287.73,93.459l0.642-1.383c0.593,0.383,1.494,0.642,2.309,0.642c0.889,0,1.222-0.234,1.222-0.605
			c0-1.086-4.012,0.025-4.012-2.629c0-1.259,1.136-2.148,3.074-2.148c0.913,0,1.926,0.21,2.555,0.58l-0.642,1.37
			c-0.654-0.371-1.309-0.494-1.913-0.494c-0.864,0-1.234,0.271-1.234,0.617c0,1.136,4.012,0.037,4.012,2.654
			c0,1.234-1.148,2.111-3.136,2.111C289.483,94.175,288.347,93.867,287.73,93.459z"/>
	</g>
	<g>
		<g>
			<g>
				<path style="fill:#E0E0E0;" d="M414.336,127.5c-0.002-0.017,0.198-0.001,0.557-0.11c0.342-0.115,0.883-0.414,1.163-1.092
					c0.148-0.335,0.14-0.74,0.129-1.2c-0.004-0.458-0.008-0.956-0.012-1.496c-0.007-1.084-0.015-2.331-0.024-3.732
					c-0.007-1.406-0.014-2.967-0.023-4.673c-0.005-0.422,0.004-0.875-0.014-1.297c-0.039-0.413-0.228-0.819-0.54-1.118
					c-0.309-0.301-0.739-0.486-1.186-0.493c-0.48,0.001-0.969,0.002-1.466,0.003c-3.992,0.011-8.533,0.024-13.551,0.038
					c-20.099,0.02-47.834,0.047-78.466,0.076c-0.843-0.02-1.608,0.693-1.652,1.527c-0.002,0.945-0.005,1.888-0.007,2.827
					c0,1.892-0.001,3.771-0.001,5.637c0,0.933-0.001,1.862-0.001,2.788c-0.014,0.489,0.005,0.854,0.215,1.216
					c0.194,0.349,0.522,0.62,0.897,0.749c0.19,0.066,0.38,0.093,0.592,0.093l0.687,0l1.369,0.001c0.911,0,1.818,0.001,2.721,0.001
					c7.225,0.005,14.194,0.01,20.834,0.015c13.274,0.021,25.229,0.04,35.276,0.056c10.027,0.035,18.147,0.063,23.782,0.083
					c2.792,0.021,4.967,0.038,6.466,0.049c0.725,0.011,1.283,0.02,1.682,0.026C414.142,127.482,414.336,127.5,414.336,127.5
					s-0.194,0.018-0.573,0.027c-0.399,0.006-0.957,0.015-1.682,0.026c-1.499,0.011-3.674,0.028-6.466,0.049
					c-5.635,0.02-13.756,0.048-23.782,0.083c-10.047,0.016-22.002,0.035-35.276,0.056c-6.64,0.005-13.609,0.01-20.834,0.015
					c-0.903,0-1.81,0.001-2.721,0.001l-1.369,0.001l-0.687,0c-0.247,0.001-0.517-0.035-0.761-0.121
					c-0.494-0.169-0.922-0.523-1.177-0.981c-0.277-0.443-0.301-1.041-0.283-1.47c0-0.926-0.001-1.855-0.001-2.788
					c0-1.866-0.001-3.745-0.001-5.637c0.003-0.952,0.005-1.908,0.008-2.866c0.057-1.099,1.065-2.035,2.171-2.009
					c30.633,0.03,58.367,0.057,78.466,0.076c5.018,0.014,9.559,0.027,13.551,0.038c0.5,0.003,0.991,0.005,1.474,0.008
					c0.517,0.012,1.014,0.231,1.366,0.58c0.356,0.346,0.57,0.816,0.61,1.289c0.016,0.468,0.001,0.888,0.004,1.32
					c-0.008,1.707-0.016,3.267-0.023,4.673c-0.009,1.401-0.017,2.648-0.024,3.732c-0.004,0.539-0.009,1.038-0.012,1.496
					c0.003,0.449,0.003,0.89-0.162,1.24c-0.313,0.71-0.888,1.001-1.244,1.103C414.535,127.536,414.336,127.5,414.336,127.5z"/>
			</g>
		</g>
		<g>
			<path style="fill:#E0E0E0;" d="M325.037,121.79l0.259-0.545c0.363,0.328,0.985,0.566,1.614,0.566
				c0.846,0,1.209-0.329,1.209-0.755c0-1.195-2.963-0.441-2.963-2.257c0-0.754,0.587-1.397,1.873-1.397
				c0.573,0,1.167,0.154,1.572,0.433l-0.23,0.559c-0.427-0.272-0.909-0.398-1.342-0.398c-0.832,0-1.188,0.35-1.188,0.776
				c0,1.195,2.963,0.447,2.963,2.243c0,0.748-0.601,1.391-1.894,1.391C326.162,122.405,325.428,122.154,325.037,121.79z"/>
			<path style="fill:#E0E0E0;" d="M333.06,120.721h-3.005c0.084,0.65,0.607,1.083,1.342,1.083c0.434,0,0.797-0.147,1.069-0.447
				l0.37,0.433c-0.335,0.391-0.846,0.601-1.461,0.601c-1.194,0-1.991-0.79-1.991-1.894c0-1.097,0.789-1.887,1.858-1.887
				s1.831,0.769,1.831,1.908C333.074,120.575,333.067,120.658,333.06,120.721z M330.055,120.239h2.376
				c-0.07-0.622-0.538-1.063-1.189-1.063C330.6,119.177,330.125,119.61,330.055,120.239z"/>
			<path style="fill:#E0E0E0;" d="M336.835,120.113v2.236h-0.637v-0.489c-0.224,0.335-0.636,0.531-1.216,0.531
				c-0.839,0-1.369-0.447-1.369-1.09c0-0.594,0.384-1.083,1.488-1.083h1.063v-0.133c0-0.566-0.329-0.895-0.993-0.895
				c-0.439,0-0.887,0.154-1.174,0.399l-0.279-0.503c0.385-0.308,0.937-0.475,1.53-0.475
				C336.261,118.611,336.835,119.1,336.835,120.113z M336.164,121.217V120.7h-1.035c-0.663,0-0.853,0.259-0.853,0.573
				c0,0.37,0.308,0.601,0.818,0.601C335.597,121.874,335.996,121.643,336.164,121.217z"/>
			<path style="fill:#E0E0E0;" d="M340.071,118.611v0.65c-0.057-0.007-0.105-0.007-0.154-0.007c-0.72,0-1.167,0.44-1.167,1.251
				v1.845h-0.671v-3.704h0.642v0.622C338.96,118.834,339.421,118.611,340.071,118.611z"/>
			<path style="fill:#E0E0E0;" d="M340.517,120.497c0-1.104,0.818-1.887,1.957-1.887c0.664,0,1.216,0.272,1.51,0.789l-0.511,0.329
				c-0.237-0.363-0.601-0.531-1.006-0.531c-0.727,0-1.272,0.51-1.272,1.3c0,0.804,0.546,1.307,1.272,1.307
				c0.405,0,0.769-0.168,1.006-0.531l0.511,0.321c-0.294,0.517-0.846,0.797-1.51,0.797
				C341.336,122.391,340.517,121.602,340.517,120.497z"/>
			<path style="fill:#E0E0E0;" d="M348.318,120.218v2.131h-0.671v-2.055c0-0.727-0.363-1.083-1-1.083
				c-0.712,0-1.174,0.426-1.174,1.23v1.908h-0.671v-5.186h0.671v2.006c0.279-0.356,0.741-0.559,1.307-0.559
				C347.682,118.611,348.318,119.128,348.318,120.218z"/>
			<path style="fill:#E0E0E0;" d="M349.248,121.909c0-0.279,0.217-0.475,0.476-0.475c0.251,0,0.461,0.196,0.461,0.475
				c0,0.28-0.21,0.482-0.461,0.482C349.464,122.391,349.248,122.189,349.248,121.909z"/>
			<path style="fill:#E0E0E0;" d="M350.834,121.909c0-0.279,0.217-0.475,0.476-0.475c0.251,0,0.461,0.196,0.461,0.475
				c0,0.28-0.21,0.482-0.461,0.482C351.05,122.391,350.834,122.189,350.834,121.909z"/>
			<path style="fill:#E0E0E0;" d="M352.421,121.909c0-0.279,0.217-0.475,0.476-0.475c0.251,0,0.461,0.196,0.461,0.475
				c0,0.28-0.21,0.482-0.461,0.482C352.637,122.391,352.421,122.189,352.421,121.909z"/>
		</g>
	</g>
	<g>
		<g>
			<path style="fill:#263238;" d="M149.462,220.385c-0.017,0.006-0.114-0.212-0.285-0.635c-0.166-0.424-0.423-1.045-0.713-1.86
				c-0.599-1.623-1.405-3.997-2.239-6.979c-1.655-5.937-3.385-14.477-2.689-23.962c0.374-4.727,1.351-9.174,2.723-13.044
				c1.373-3.873,3.093-7.179,4.831-9.751c1.732-2.578,3.395-4.476,4.636-5.685c0.595-0.63,1.128-1.047,1.461-1.358
				c0.343-0.301,0.528-0.452,0.54-0.438c0.012,0.013-0.15,0.191-0.469,0.515c-0.308,0.335-0.817,0.774-1.386,1.422
				c-1.19,1.246-2.796,3.166-4.473,5.746c-1.684,2.575-3.351,5.864-4.686,9.707c-1.334,3.841-2.286,8.245-2.657,12.926
				c-0.69,9.396,0.966,17.886,2.525,23.827c0.785,2.983,1.535,5.368,2.075,7.009c0.256,0.781,0.462,1.408,0.62,1.891
				C149.414,220.148,149.479,220.379,149.462,220.385z"/>
		</g>
	</g>
	<g>
		<g>
			<path style="fill:#FF725E;" d="M303.515,152.396v52.338h63.616v-52.338c0-2.491-2.02-4.511-4.511-4.511h-54.594
				C305.535,147.885,303.515,149.905,303.515,152.396z"/>
		</g>
		<g style="opacity:0.3;">
			<path d="M303.515,152.396v52.338h63.616v-52.338c0-2.491-2.02-4.511-4.511-4.511h-54.594
				C305.535,147.885,303.515,149.905,303.515,152.396z"/>
		</g>
		<g>
			<g>
				<polyline style="fill:#F5F5F5;" points="306.501,176.31 306.923,157.095 362.592,157.095 362.592,168.059 				"/>
			</g>
			<g>
				<g>
					<path style="fill:#263238;" d="M362.592,168.059c-0.017,0-0.033-0.256-0.049-0.747c-0.011-0.536-0.026-1.254-0.046-2.159
						c-0.019-1.932-0.046-4.66-0.079-8.057l0.173,0.173c-7.794,0.021-19.226,0.053-31.96,0.087
						c-8.764-0.016-16.914-0.031-23.709-0.043l0.217-0.212c-0.164,5.758-0.301,10.547-0.398,13.951
						c-0.061,1.64-0.11,2.944-0.145,3.888c-0.022,0.417-0.04,0.753-0.055,1.022c-0.016,0.231-0.03,0.35-0.041,0.349
						c-0.011,0-0.02-0.12-0.026-0.351c-0.003-0.269-0.006-0.606-0.01-1.023c0.006-0.945,0.015-2.249,0.026-3.89
						c0.052-3.405,0.126-8.195,0.214-13.955l0.003-0.212l0.214,0c6.795-0.012,14.944-0.027,23.709-0.043
						c12.734,0.035,24.166,0.066,31.96,0.087l0.175,0.001l-0.002,0.173c-0.033,3.397-0.06,6.125-0.079,8.057
						c-0.019,0.905-0.034,1.623-0.046,2.159C362.625,167.803,362.609,168.059,362.592,168.059z"/>
				</g>
			</g>
		</g>
		<g>
			<g>
				<rect x="310.547" y="151.902" style="fill:#F5F5F5;" width="48.636" height="5.194"/>
			</g>
			<g>
				<g>
					<path style="fill:#263238;" d="M310.547,151.902c-0.006-0.006,0.071-0.012,0.228-0.018c0.187-0.005,0.419-0.01,0.706-0.018
						c0.667-0.009,1.588-0.021,2.758-0.036c2.458-0.018,5.954-0.045,10.283-0.077c8.802-0.028,20.979-0.067,34.661-0.111
						l0.259-0.001v0.26c0,1.655,0.001,3.413,0.001,5.191c-0.52,0.525-0.153,0.146-0.274,0.263h-0.016h-0.032h-0.063l-0.126,0h-0.253
						h-0.504l-1.005,0c-0.668,0-1.334,0-1.996-0.001c-1.324-0.001-2.634-0.001-3.929-0.002c-2.59-0.003-5.12-0.005-7.576-0.008
						c-4.909-0.011-9.521-0.021-13.728-0.031c-8.365-0.047-15.109-0.084-19.396-0.108l-0.112-0.001l0.002-0.11
						c0.027-1.673,0.048-2.974,0.063-3.897c0.011-0.406,0.019-0.729,0.026-0.98C310.533,152.001,310.54,151.895,310.547,151.902
						c0.007,0.007,0.014,0.127,0.022,0.356c0.007,0.258,0.015,0.589,0.026,1.005c0.015,0.908,0.036,2.187,0.063,3.833l-0.11-0.11
						c4.287-0.024,11.031-0.062,19.396-0.108c4.207-0.009,8.819-0.02,13.728-0.031c2.456-0.003,4.986-0.005,7.576-0.008
						c1.295-0.001,2.606-0.001,3.929-0.002c0.662,0,1.327,0,1.996-0.001l1.005,0h0.504h0.253h0.126h0.063h0.032h0.016
						c-0.112,0.115,0.273-0.257-0.247,0.258c0-1.778,0.001-3.536,0.001-5.191l0.259,0.259c-13.608-0.044-25.719-0.083-34.473-0.111
						c-4.354-0.032-7.871-0.058-10.343-0.077c-1.195-0.015-2.135-0.027-2.817-0.036c-0.301-0.007-0.544-0.013-0.74-0.018
						C310.642,151.914,310.553,151.908,310.547,151.902z"/>
				</g>
			</g>
		</g>
		<g>
			<g>
				<path style="fill:#263238;" d="M364.843,217.832c0,0.144-12.155,0.26-27.146,0.26c-14.996,0-27.149-0.117-27.149-0.26
					c0-0.144,12.153-0.26,27.149-0.26C352.687,217.571,364.843,217.688,364.843,217.832z"/>
			</g>
		</g>
		<g>
			<path style="fill:#FF725E;" d="M298.622,166.863l4.893,37.871h63.616v-36.675H338.24l-5.605-4.929h-30.732
				C299.908,163.13,298.366,164.884,298.622,166.863z"/>
		</g>
		<g>
			<g>
				<path style="fill:#263238;" d="M349.624,182.891c0,0.144-6.967,0.26-15.559,0.26c-8.595,0-15.56-0.117-15.56-0.26
					s6.965-0.26,15.56-0.26C342.657,182.63,349.624,182.747,349.624,182.891z"/>
			</g>
		</g>
		<g>
			<g>
				<path style="fill:#263238;" d="M349.624,186.616c0,0.144-6.967,0.26-15.559,0.26c-8.595,0-15.56-0.117-15.56-0.26
					c0-0.144,6.965-0.26,15.56-0.26C342.657,186.356,349.624,186.473,349.624,186.616z"/>
			</g>
		</g>
	</g>
	<g>
		<g>
			<path style="fill:#FF725E;" d="M159.338,266.075v52.338h63.616v-52.338c0-2.491-2.02-4.511-4.511-4.511h-54.594
				C161.357,261.564,159.338,263.583,159.338,266.075z"/>
		</g>
		<g style="opacity:0.3;">
			<path d="M159.338,266.075v52.338h63.616v-52.338c0-2.491-2.02-4.511-4.511-4.511h-54.594
				C161.357,261.564,159.338,263.583,159.338,266.075z"/>
		</g>
		<g>
			<g>
				<polyline style="fill:#F5F5F5;" points="162.324,289.988 162.746,270.774 218.415,270.774 218.415,281.737 				"/>
			</g>
			<g>
				<g>
					<path style="fill:#263238;" d="M218.415,281.737c-0.017,0-0.033-0.256-0.049-0.747c-0.011-0.536-0.026-1.254-0.046-2.159
						c-0.019-1.932-0.046-4.66-0.079-8.057l0.173,0.173c-7.794,0.021-19.226,0.053-31.96,0.088
						c-8.764-0.016-16.914-0.031-23.709-0.043l0.217-0.212c-0.164,5.758-0.301,10.547-0.398,13.951
						c-0.061,1.64-0.11,2.944-0.145,3.888c-0.022,0.417-0.04,0.753-0.055,1.022c-0.016,0.231-0.03,0.35-0.041,0.35
						c-0.011,0-0.02-0.12-0.026-0.351c-0.002-0.268-0.006-0.606-0.01-1.023c0.006-0.945,0.015-2.249,0.026-3.89
						c0.052-3.405,0.126-8.195,0.214-13.955l0.003-0.212l0.214,0c6.795-0.012,14.944-0.027,23.709-0.043
						c12.734,0.035,24.167,0.066,31.96,0.087l0.175,0l-0.002,0.173c-0.033,3.397-0.06,6.125-0.079,8.057
						c-0.019,0.905-0.034,1.623-0.046,2.159C218.448,281.481,218.431,281.737,218.415,281.737z"/>
				</g>
			</g>
		</g>
		<g>
			<g>
				<rect x="166.37" y="265.58" style="fill:#F5F5F5;" width="48.636" height="5.194"/>
			</g>
			<g>
				<g>
					<path style="fill:#263238;" d="M166.37,265.58c-0.006-0.006,0.071-0.012,0.228-0.018c0.187-0.005,0.419-0.01,0.706-0.018
						c0.667-0.009,1.588-0.021,2.758-0.036c2.458-0.018,5.954-0.044,10.283-0.077c8.802-0.028,20.979-0.067,34.661-0.111
						l0.259-0.001l0,0.26c0,1.655,0.001,3.413,0.001,5.191c-0.52,0.525-0.153,0.146-0.274,0.263h-0.016h-0.032h-0.063h-0.126h-0.252
						l-0.504,0l-1.005,0c-0.668,0-1.334,0-1.995,0c-1.324-0.001-2.634-0.001-3.929-0.002c-2.59-0.003-5.12-0.006-7.576-0.008
						c-4.908-0.011-9.521-0.021-13.728-0.031c-8.365-0.047-15.109-0.084-19.396-0.108l-0.112-0.001l0.002-0.11
						c0.027-1.673,0.048-2.974,0.063-3.897c0.011-0.406,0.019-0.729,0.026-0.98C166.356,265.68,166.363,265.573,166.37,265.58
						c0.007,0.007,0.014,0.127,0.022,0.356c0.007,0.258,0.015,0.589,0.026,1.005c0.015,0.908,0.036,2.187,0.063,3.833l-0.11-0.11
						c4.287-0.024,11.031-0.062,19.396-0.108c4.207-0.01,8.819-0.02,13.728-0.031c2.456-0.003,4.986-0.005,7.576-0.008
						c1.295-0.001,2.606-0.001,3.929-0.002c0.662,0,1.327,0,1.995,0l1.005,0h0.504h0.252h0.126h0.063h0.032h0.016
						c-0.112,0.115,0.273-0.257-0.247,0.258c0-1.778,0.001-3.536,0.001-5.191l0.259,0.259c-13.609-0.044-25.719-0.083-34.473-0.111
						c-4.354-0.032-7.871-0.058-10.343-0.077c-1.194-0.015-2.135-0.027-2.816-0.036c-0.301-0.007-0.544-0.013-0.74-0.018
						C166.465,265.592,166.376,265.586,166.37,265.58z"/>
				</g>
			</g>
		</g>
		<g>
			<g>
				<path style="fill:#263238;" d="M220.665,331.51c0,0.144-12.156,0.26-27.146,0.26c-14.996,0-27.149-0.117-27.149-0.26
					c0-0.144,12.153-0.26,27.149-0.26C208.51,331.25,220.665,331.366,220.665,331.51z"/>
			</g>
		</g>
		<g>
			<path style="fill:#FF725E;" d="M154.445,280.542l4.893,37.871h63.616v-36.675h-28.891l-5.605-4.929h-30.732
				C155.731,276.809,154.189,278.562,154.445,280.542z"/>
		</g>
		<g>
			<g>
				<path style="fill:#263238;" d="M205.446,296.569c0,0.144-6.967,0.26-15.559,0.26c-8.595,0-15.56-0.117-15.56-0.26
					s6.965-0.26,15.56-0.26C198.48,296.309,205.446,296.426,205.446,296.569z"/>
			</g>
		</g>
		<g>
			<g>
				<path style="fill:#263238;" d="M205.446,300.295c0,0.144-6.967,0.26-15.559,0.26c-8.595,0-15.56-0.117-15.56-0.26
					s6.965-0.26,15.56-0.26C198.48,300.034,205.446,300.151,205.446,300.295z"/>
			</g>
		</g>
	</g>
	<g>
		<g>
			<path style="fill:#FF725E;" d="M311.422,266.107v52.337h63.616v-52.337c0-2.491-2.02-4.511-4.511-4.511h-54.594
				C313.442,261.596,311.422,263.616,311.422,266.107z"/>
		</g>
		<g style="opacity:0.3;">
			<path d="M311.422,266.107v52.337h63.616v-52.337c0-2.491-2.02-4.511-4.511-4.511h-54.594
				C313.442,261.596,311.422,263.616,311.422,266.107z"/>
		</g>
		<g>
			<g>
				<polyline style="fill:#F5F5F5;" points="314.408,290.021 314.83,270.806 370.499,270.806 370.499,281.77 				"/>
			</g>
			<g>
				<g>
					<path style="fill:#263238;" d="M370.499,281.77c-0.017,0-0.033-0.256-0.049-0.747c-0.011-0.536-0.026-1.254-0.046-2.159
						c-0.019-1.932-0.046-4.66-0.079-8.057l0.173,0.173c-7.794,0.021-19.226,0.053-31.96,0.087
						c-8.764-0.016-16.914-0.031-23.709-0.043l0.217-0.212c-0.164,5.758-0.301,10.547-0.398,13.951
						c-0.061,1.64-0.11,2.944-0.145,3.888c-0.022,0.417-0.04,0.753-0.055,1.022c-0.016,0.231-0.03,0.35-0.041,0.35
						c-0.011,0-0.02-0.12-0.026-0.351c-0.003-0.268-0.006-0.606-0.01-1.023c0.006-0.944,0.015-2.249,0.026-3.89
						c0.052-3.405,0.126-8.195,0.214-13.955l0.003-0.212l0.214,0c6.795-0.012,14.944-0.027,23.709-0.043
						c12.734,0.035,24.167,0.066,31.96,0.087l0.175,0l-0.002,0.173c-0.033,3.397-0.06,6.125-0.079,8.057
						c-0.019,0.905-0.034,1.623-0.046,2.159C370.532,281.514,370.516,281.77,370.499,281.77z"/>
				</g>
			</g>
		</g>
		<g>
			<g>
				<rect x="318.454" y="265.613" style="fill:#F5F5F5;" width="48.636" height="5.194"/>
			</g>
			<g>
				<g>
					<path style="fill:#263238;" d="M318.454,265.613c-0.006-0.006,0.071-0.012,0.228-0.018c0.187-0.005,0.419-0.01,0.706-0.018
						c0.667-0.009,1.588-0.021,2.758-0.036c2.458-0.018,5.954-0.044,10.283-0.077c8.802-0.028,20.979-0.067,34.661-0.111
						l0.259-0.001v0.26c0,1.655,0.001,3.413,0.001,5.191c-0.52,0.526-0.153,0.146-0.274,0.263h-0.016h-0.032h-0.063h-0.126l-0.253,0
						h-0.504l-1.005,0c-0.668,0-1.334,0-1.996-0.001c-1.324-0.001-2.634-0.001-3.93-0.002c-2.59-0.003-5.12-0.006-7.576-0.008
						c-4.908-0.011-9.521-0.021-13.728-0.031c-8.365-0.047-15.109-0.084-19.396-0.108l-0.112-0.001l0.002-0.11
						c0.027-1.673,0.048-2.974,0.063-3.897c0.011-0.406,0.019-0.729,0.026-0.98C318.44,265.712,318.447,265.606,318.454,265.613
						c0.007,0.007,0.014,0.127,0.022,0.356c0.007,0.258,0.015,0.589,0.026,1.005c0.015,0.908,0.036,2.187,0.063,3.832l-0.11-0.11
						c4.287-0.024,11.031-0.061,19.396-0.108c4.207-0.009,8.819-0.02,13.728-0.031c2.456-0.003,4.986-0.005,7.576-0.008
						c1.295-0.001,2.606-0.001,3.93-0.002c0.662,0,1.327,0,1.996-0.001l1.005,0h0.504h0.253h0.126h0.063h0.032h0.016
						c-0.112,0.115,0.273-0.257-0.247,0.258c0-1.778,0.001-3.536,0.001-5.191l0.259,0.259c-13.608-0.044-25.719-0.083-34.473-0.111
						c-4.354-0.032-7.871-0.058-10.343-0.077c-1.195-0.015-2.135-0.027-2.816-0.036c-0.301-0.007-0.544-0.013-0.74-0.018
						C318.549,265.625,318.46,265.619,318.454,265.613z"/>
				</g>
			</g>
		</g>
		<g>
			<g>
				<path style="fill:#263238;" d="M372.75,331.543c0,0.144-12.156,0.26-27.147,0.26c-14.996,0-27.149-0.117-27.149-0.26
					c0-0.144,12.153-0.26,27.149-0.26C360.594,331.282,372.75,331.399,372.75,331.543z"/>
			</g>
		</g>
		<g>
			<path style="fill:#FF725E;" d="M306.529,280.574l4.893,37.871h63.616V281.77h-28.891l-5.605-4.928h-30.732
				C307.815,276.841,306.273,278.595,306.529,280.574z"/>
		</g>
		<g>
			<g>
				<path style="fill:#263238;" d="M357.53,296.602c0,0.144-6.967,0.26-15.559,0.26c-8.595,0-15.56-0.117-15.56-0.26
					s6.965-0.26,15.56-0.26C350.564,296.341,357.53,296.458,357.53,296.602z"/>
			</g>
		</g>
		<g>
			<g>
				<path style="fill:#263238;" d="M357.53,300.327c0,0.144-6.967,0.26-15.559,0.26c-8.595,0-15.56-0.117-15.56-0.26
					c0-0.144,6.965-0.26,15.56-0.26C350.564,300.067,357.53,300.184,357.53,300.327z"/>
			</g>
		</g>
	</g>
	<g>
		<g>
			<path style="fill:#263238;" d="M139.545,182.124c-0.036-0.001-0.051-0.383-0.046-1.075c-0.004-0.692,0.059-1.694,0.196-2.925
				c0.269-2.461,0.971-5.844,2.359-9.374c1.398-3.527,3.197-6.477,4.682-8.458c0.741-0.993,1.379-1.767,1.855-2.27
				c0.47-0.509,0.741-0.777,0.768-0.754c0.069,0.06-0.931,1.215-2.323,3.237c-1.395,2.018-3.118,4.955-4.497,8.436
				c-1.369,3.483-2.118,6.805-2.478,9.231C139.695,180.601,139.636,182.128,139.545,182.124z"/>
		</g>
	</g>
	<g>
		<g>
			<path style="fill:#263238;" d="M142.735,178.221c0.056,0.045-0.241,0.521-0.766,1.254l-0.944,1.271
				c-0.189,0.245-0.379,0.49-0.571,0.739l-0.305,0.388l-0.157,0.198l-0.079,0.1l-0.04,0.05l-0.02,0.025l-0.01,0.013l-0.005,0.006
				l-0.003,0.003c0.086-0.002-0.75,0.024-0.397,0.012l-0.001-0.002c-0.958-1.046-1.54-2.213-1.82-3.085
				c-0.285-0.876-0.312-1.449-0.249-1.461c0.151-0.054,0.615,2.202,2.453,4.194l0.001,0.001c0.354-0.012-0.481,0.018-0.394,0.014
				l0.003-0.003l0.005-0.006l0.01-0.013l0.02-0.025l0.04-0.05l0.08-0.1l0.159-0.197l0.312-0.383c0.201-0.243,0.398-0.481,0.595-0.72
				l1.031-1.201C142.28,178.571,142.678,178.176,142.735,178.221z"/>
		</g>
	</g>
	<g>
		<g>
			<path style="fill:#E0E0E0;" d="M351.507,224.911c0,0.144-7.623,0.26-17.023,0.26c-9.404,0-17.025-0.117-17.025-0.26
				c0-0.144,7.621-0.26,17.025-0.26C343.885,224.65,351.507,224.767,351.507,224.911z"/>
		</g>
	</g>
	<g>
		<g>
			<path style="fill:#E0E0E0;" d="M360.254,337.56c0,0.144-7.623,0.26-17.023,0.26c-9.404,0-17.025-0.117-17.025-0.26
				s7.621-0.26,17.025-0.26C352.632,337.299,360.254,337.416,360.254,337.56z"/>
		</g>
	</g>
	<g>
		<g>
			<path style="fill:#E0E0E0;" d="M201.055,339.371c0,0.144-7.623,0.26-17.023,0.26c-9.404,0-17.025-0.117-17.025-0.26
				s7.621-0.26,17.025-0.26C193.432,339.111,201.055,339.227,201.055,339.371z"/>
		</g>
	</g>
</g>
<g id="Character">
	<g>
		<g>
			<path style="fill:#FFBE9D;" d="M67.24,260.001c-0.995,4.408-6,6.711-9.077,10.022c-3.076,3.311-7.621,6.025-11.952,4.736
				c-2.852-0.849-4.992-3.305-6.229-6.011c-2.88-6.299-1.513-13.693,0.643-20.274c2.156-6.582,5.081-13.094,5.205-20.019
				l14.509,4.867l3.575-4.406C63.915,228.916,67.965,256.792,67.24,260.001z"/>
		</g>
		<g>
			<path style="fill:#FFBE9D;" d="M123.765,222.485c0,0,8.772,35.154,17.16,40.311c10.604,6.52,16.802-1.233,16.802-1.233
				l16.607-30.389l-11.328-2.839l-11.038,13.903l-7.701-21.056L123.765,222.485z"/>
		</g>
		<g>
			<g>
				<g>
					<g>
						<path style="fill:#FFBE9D;" d="M111.01,368.642c0,1.179,1.395,18.557,1.395,18.557s-2.584,7.996-2.791,16.82
							c-0.381,16.216-0.235,51.132-0.235,51.132h17.31l0.008-1.966c0,0,9.125-60.934,8.805-66.902l-1.214-22.649L111.01,368.642"/>
					</g>
				</g>
				<g>
					<g>
						<path style="fill:#FFBE9D;" d="M96.923,341.638l-28.81,4.872c0,0,2.905,7.886,3.113,8.659
							c0.759,2.819,2.42,10.108,1.444,16.941c-1.244,8.706-2.341,19.278-1.792,24.253c0.548,4.975,5.953,57.346,5.953,57.346
							l17.167,0.535l4.168-96.428L96.923,341.638z"/>
					</g>
				</g>
			</g>
			<g>
				<g>
					<g>
						<g>
							<g>
								<g>
									<g>
										<g>
											<g>
												<g>
													<path style="fill:#FFBE9D;" d="M84.881,133.829l-0.159,51.882l22.259,1.062l0.643-12.619c0,0,7.906,1.57,9.946-5.773
														c1.303-4.69,0.978-40.937,0.978-40.937L84.881,133.829z"/>
												</g>
											</g>
										</g>
									</g>
								</g>
							</g>
						</g>
						<g>
							<g>
								<g>
									<g>
										<g>
											<g>
												<g>
													<path style="fill:#263238;" d="M121.476,131.097c-3.506,1.004-4.267,6.733-4.267,6.733l-5.499,12.146
														c-2.801-2.193-6.563-2.068-7.275,2.855c-0.514,3.557,3.909,4.277,3.909,4.277c-2.575,4.382-4.321,7.926-8.07,12.093
														c-4.057,4.511-6.33,4.965-10.731,5.039h-4.852c0,0-2.375-7.71-6.774-26.991c-4.88-21.391,20.416-18.636,25.105-24.096
														C110.657,114.26,132.528,127.933,121.476,131.097z"/>
												</g>
											</g>
										</g>
									</g>
								</g>
							</g>
						</g>
					</g>
				</g>
				<g>
					<g>
						<g>
							<g>
								<g>
									<g>
										<path style="fill:#263238;" d="M78.378,149.266c-4.1-2.754-4.47-10.46-2.078-15.082c2.392-4.621,7.427-7.752,12.629-7.853
											c0.696-0.014,1.414,0.019,2.063-0.231c0.963-0.372,1.586-1.284,2.215-2.102c3.664-4.765,7.265-9.446,14.095-9.445
											c1.109,0,2.337,0,4.294,1.065c0.975,0.53,2.349,2.328,2.579,3.414c1.284-0.608,2.59-1.224,3.995-1.437
											c1.405-0.213,2.947,0.033,4.008,0.978c1.061,0.945,1.454,2.683,0.63,3.84c2.302-0.146,4.484,1.76,4.846,4.038
											c0.362,2.278-2.902,3.879-3.242,4.056c0,0,1.792,3.751-2.48,5.999c-1.721,0.905-3.957-0.185-4.211-0.317"/>
									</g>
								</g>
							</g>
						</g>
					</g>
				</g>
				<g>
					<g>
						<g>
							<g>
								<g>
									<g>
										<g>
											<path style="fill:#455A64;" d="M94.63,154.255c0.144-0.015,0.365,1.785-0.127,3.939c-0.479,2.158-1.45,3.689-1.573,3.614
												c-0.149-0.075,0.565-1.664,1.023-3.738C94.426,156.001,94.463,154.258,94.63,154.255z"/>
										</g>
									</g>
								</g>
							</g>
						</g>
					</g>
				</g>
				<g>
					<g>
						<g>
							<g>
								<g>
									<g>
										<g>
											<path style="fill:#455A64;" d="M97.321,151.709c0.15,0.007,0.183,1.723-0.207,3.793
												c-0.383,2.072-1.032,3.661-1.175,3.612c-0.153-0.049,0.245-1.684,0.62-3.716
												C96.943,153.368,97.16,151.699,97.321,151.709z"/>
										</g>
									</g>
								</g>
							</g>
						</g>
					</g>
				</g>
				<g>
					<g>
						<g>
							<g>
								<g>
									<g>
										<g>
											<path style="fill:#455A64;" d="M105.031,143.146c0.053,0.074-0.577,0.534-1.377,1.472
												c-0.807,0.928-1.726,2.38-2.399,4.14c-0.674,1.761-1.044,3.449-1.33,4.666c-0.28,1.22-0.472,1.976-0.551,1.962
												c-0.074-0.013-0.021-0.79,0.159-2.036c0.188-1.242,0.5-2.974,1.196-4.795c0.695-1.822,1.716-3.314,2.632-4.208
												C104.273,143.441,104.999,143.091,105.031,143.146z"/>
										</g>
									</g>
								</g>
							</g>
						</g>
					</g>
				</g>
				<g>
					<g>
						<g>
							<g>
								<g>
									<g>
										<g>
											<path style="fill:#455A64;" d="M108.148,137.316c0.065-0.018,0.293,0.502,0.432,1.404
												c0.141,0.898,0.145,2.184-0.193,3.542c-0.343,1.358-0.953,2.49-1.501,3.215c-0.548,0.73-0.994,1.081-1.043,1.034
												c-0.139-0.107,1.367-1.781,1.997-4.386C108.513,139.533,107.975,137.345,108.148,137.316z"/>
										</g>
									</g>
								</g>
							</g>
						</g>
					</g>
				</g>
				<g>
					<g>
						<g>
							<g>
								<g>
									<g>
										<g>
											<path style="fill:#455A64;" d="M81.582,150.274c-0.076,0.136-0.757-0.1-1.522-0.527c-0.765-0.427-1.323-0.884-1.247-1.02
												c0.076-0.136,0.757,0.1,1.522,0.528C81.1,149.682,81.658,150.138,81.582,150.274z"/>
										</g>
									</g>
								</g>
							</g>
						</g>
					</g>
				</g>
				<g>
					<g>
						<g>
							<g>
								<g>
									<g>
										<g>
											<path style="fill:#455A64;" d="M92.336,144.735c0.147,0.021,0.056,1.121-0.636,2.257
												c-0.684,1.141-1.615,1.733-1.702,1.613c-0.106-0.124,0.594-0.856,1.219-1.905
												C91.855,145.659,92.177,144.699,92.336,144.735z"/>
										</g>
									</g>
								</g>
							</g>
						</g>
					</g>
				</g>
				<g>
					<g>
						<g>
							<g>
								<g>
									<g>
										<g>
											<path style="fill:#455A64;" d="M95.643,142.959c0.144,0.032-0.09,1.349-0.991,2.697c-0.892,1.354-2.015,2.081-2.1,1.961
												c-0.105-0.126,0.795-1.001,1.63-2.273C95.03,144.081,95.486,142.911,95.643,142.959z"/>
										</g>
									</g>
								</g>
							</g>
						</g>
					</g>
				</g>
				<g>
					<g>
						<g>
							<g>
								<g>
									<g>
										<g>
											<path style="fill:#455A64;" d="M112.079,121.231c-0.039,0.045-0.417-0.317-1.22-0.774
												c-0.803-0.441-2.085-0.923-3.729-0.964c-1.628-0.051-3.628,0.337-5.472,1.47c-1.845,1.132-3.476,2.975-4.66,5.191
												c-0.863,1.61-1.46,3.288-1.892,4.865l-0.089,0.326l-0.299-0.157c-1.653-0.868-3.403-1.249-4.966-1.27
												c-1.569-0.043-2.95,0.245-4.043,0.61c-2.2,0.751-3.243,1.74-3.301,1.651c-0.017-0.02,0.23-0.268,0.744-0.66
												c0.518-0.385,1.329-0.885,2.442-1.311c1.109-0.421,2.53-0.763,4.162-0.753c1.625-0.012,3.464,0.355,5.214,1.255
												l-0.388,0.169c0.425-1.612,1.027-3.333,1.917-4.994c1.222-2.286,2.932-4.203,4.888-5.368
												c1.961-1.169,4.059-1.528,5.758-1.424c1.714,0.095,3.032,0.66,3.825,1.174c0.391,0.273,0.684,0.494,0.855,0.678
												C112.006,121.12,112.092,121.216,112.079,121.231z"/>
										</g>
									</g>
								</g>
							</g>
						</g>
					</g>
				</g>
				<g>
					<g>
						<g>
							<g>
								<g>
									<g>
										<g>
											<path style="fill:#455A64;" d="M123.784,124.054c-0.04-0.01,0.619-0.167,1.277,0.579
												c0.301,0.359,0.577,0.925,0.512,1.625c-0.068,0.698-0.55,1.418-1.294,1.848c-0.732,0.449-1.735,0.598-2.704,0.372
												c-0.975-0.212-1.912-0.729-2.79-1.353c-0.885-0.618-1.735-1.338-2.729-1.87c-0.992-0.538-2.109-0.932-3.288-1.156
												c-2.369-0.441-4.723-0.175-6.711,0.46c-1.999,0.641-3.659,1.604-4.961,2.521c-2.598,1.869-3.881,3.432-3.96,3.351
												c-0.026-0.023,0.271-0.427,0.88-1.097c0.615-0.662,1.544-1.597,2.845-2.577c1.296-0.976,2.977-2.002,5.035-2.693
												c2.051-0.685,4.496-0.982,6.976-0.52c1.235,0.235,2.408,0.651,3.45,1.226c1.052,0.574,1.912,1.32,2.764,1.931
												c0.846,0.618,1.712,1.108,2.593,1.32c0.877,0.221,1.74,0.111,2.401-0.262c0.665-0.356,1.096-0.964,1.179-1.541
												c0.084-0.586-0.126-1.11-0.371-1.45C124.36,124.06,123.755,124.117,123.784,124.054z"/>
										</g>
									</g>
								</g>
							</g>
						</g>
					</g>
				</g>
			</g>
			<g>
				<g>
					<g>
						<g>
							<path style="fill:#263238;" d="M65.626,299.133c0,0-0.811,21.382,0,27.89c0.811,6.508-0.361,45.797-0.361,45.797
								s30.173,8.784,38.308-1.629c0,0-3.294-47.748-3.619-49.049c-0.326-1.302-2.986-33.842-2.986-33.842L65.626,299.133z"/>
						</g>
					</g>
					<g>
						<g>
							<path style="fill:#263238;" d="M134.446,288.3c1.776,5.528,5.532,26.358,5.532,26.358v55.207c0,0-26.142,9.444-36.555,4.766
								l-6.455-55.418v-28.719l21.505-8.377L134.446,288.3z"/>
						</g>
					</g>
					<g>
						<g>
							<g>
								<path style="fill:#455A64;" d="M117.854,326.662c-0.003,0.034-0.437,0.024-1.218-0.021c-0.781-0.045-1.91-0.129-3.303-0.244
									c-2.885-0.263-6.68-0.61-10.877-0.993c-4.197-0.383-7.992-0.729-10.875-0.992c-1.316-0.122-2.42-0.224-3.296-0.304
									c-0.778-0.079-1.207-0.139-1.205-0.173c0.002-0.034,0.435-0.038,1.218-0.017c0.782,0.019,1.913,0.071,3.309,0.15
									c2.793,0.158,6.647,0.448,10.896,0.85c4.248,0.401,8.087,0.819,10.865,1.135c1.312,0.159,2.414,0.292,3.287,0.398
									C117.43,326.556,117.858,326.629,117.854,326.662z"/>
							</g>
						</g>
					</g>
					<g>
						<g>
							<g>
								<path style="fill:#455A64;" d="M98.268,324.918c0.134-0.014,1.397,11.105,2.821,24.831
									c1.424,13.731,2.469,24.87,2.334,24.884c-0.134,0.014-1.397-11.102-2.821-24.833
									C99.179,336.073,98.134,324.932,98.268,324.918z"/>
							</g>
						</g>
					</g>
					<g>
						<g>
							<g>
								<path style="fill:#455A64;" d="M98.645,324.619c0.084,0.106-1.286,1.326-3.059,2.724c-1.773,1.399-3.278,2.446-3.362,2.34
									c-0.084-0.106,1.286-1.325,3.059-2.724C97.057,325.56,98.562,324.513,98.645,324.619z"/>
							</g>
						</g>
					</g>
					<g>
						<g>
							<g>
								<path style="fill:#455A64;" d="M139.201,311.048c-0.029,0.052-0.851-0.329-2.086-1.112c-1.235-0.78-2.865-1.993-4.472-3.546
									c-1.606-1.556-2.871-3.146-3.692-4.354c-0.823-1.209-1.231-2.017-1.18-2.048c0.064-0.04,0.574,0.701,1.459,1.844
									c0.884,1.144,2.171,2.673,3.752,4.207c1.584,1.53,3.154,2.765,4.327,3.611C138.482,310.497,139.239,310.983,139.201,311.048
									z"/>
							</g>
						</g>
					</g>
				</g>
				<g>
					<g>
						<g>
							<path style="fill:#455A64;" d="M97.268,319.654c-0.03,0.015-0.186-0.238-0.443-0.711c-0.262-0.47-0.598-1.173-0.973-2.06
								c-0.755-1.77-1.597-4.313-2.106-7.214c-0.502-2.903-0.57-5.582-0.458-7.503c0.054-0.961,0.132-1.736,0.219-2.267
								c0.082-0.532,0.143-0.823,0.177-0.819c0.08,0.009-0.031,1.19-0.051,3.097c-0.022,1.906,0.099,4.543,0.594,7.408
								c0.502,2.862,1.28,5.385,1.946,7.171C96.836,318.545,97.339,319.619,97.268,319.654z"/>
						</g>
					</g>
				</g>
			</g>
			<g>
				<g>
					<g>
						<path style="fill:#455A64;" d="M129.06,243.1c-0.264-0.793-3.172-17.444-3.172-17.444l21.409-0.529
							c0,0-9.397-36.72-14.521-39.431c-7.939-4.199-25.389-4.709-25.389-4.709H84.921c0,0-24.845,6.872-29.338,14.273
							l-15.858,30.495l20.616,7.567l3.575-4.406l3.561,31.1c0,0-2.114,28.017-2.114,32.246c0,4.229,0.264,6.872,0.264,6.872
							s46.705-12.678,58.07-8.978c11.365,3.7,13.06,7.166,13.06,7.166s1.026-12.461-1.617-17.219L129.06,243.1z"/>
					</g>
				</g>
				<g>
					<g>
						<g>
							<path style="fill:#263238;" d="M64.42,233.322c-0.079,0.01-0.29-1.482-0.768-3.862c-0.48-2.379-1.273-5.641-2.493-9.136
								c-1.221-3.495-2.617-6.549-3.697-8.724c-0.512-1.01-0.946-1.867-1.301-2.567c-0.311-0.605-0.469-0.948-0.44-0.965
								c0.029-0.017,0.243,0.294,0.605,0.872c0.366,0.576,0.862,1.43,1.443,2.503c1.163,2.144,2.621,5.199,3.851,8.722
								c1.23,3.522,1.977,6.826,2.372,9.234c0.196,1.205,0.325,2.184,0.382,2.864C64.435,232.941,64.453,233.318,64.42,233.322z"/>
						</g>
					</g>
				</g>
				<g>
					<g>
						<g>
							<path style="fill:#263238;" d="M108.572,245.035c0.016,0.006-0.025,0.164-0.119,0.462c-0.117,0.349-0.259,0.776-0.432,1.293
								c-0.188,0.562-0.431,1.244-0.749,2.024c-0.313,0.781-0.647,1.68-1.087,2.644c-0.831,1.949-1.936,4.22-3.271,6.685
								c-1.359,2.451-2.962,5.087-4.809,7.744c-1.864,2.646-3.792,5.056-5.629,7.172c-1.858,2.099-3.613,3.915-5.16,5.364
								c-0.754,0.744-1.485,1.366-2.111,1.927c-0.623,0.565-1.181,1.027-1.644,1.396c-0.427,0.34-0.779,0.62-1.066,0.849
								c-0.247,0.19-0.382,0.283-0.393,0.27c-0.011-0.013,0.103-0.132,0.33-0.346c0.271-0.248,0.603-0.551,1.006-0.918
								c0.443-0.391,0.981-0.872,1.585-1.455c0.607-0.579,1.318-1.216,2.054-1.973c1.51-1.475,3.23-3.307,5.06-5.411
								c1.809-2.122,3.715-4.526,5.569-7.157c1.837-2.642,3.442-5.256,4.815-7.682c1.35-2.439,2.482-4.684,3.35-6.607
								c0.459-0.951,0.814-1.837,1.15-2.606c0.34-0.767,0.608-1.438,0.824-1.988c0.207-0.504,0.378-0.919,0.518-1.259
								C108.484,245.177,108.556,245.029,108.572,245.035z"/>
						</g>
					</g>
				</g>
				<g>
					<g>
						<g>
							<path style="fill:#263238;" d="M126.068,200.169c0.09,0.022-0.247,1.474-0.496,3.863c-0.237,2.39-0.374,5.711-0.276,9.38
								c0.088,3.67,0.317,6.989,0.514,9.389c0.092,1.117,0.171,2.066,0.235,2.843c0.052,0.672,0.073,1.045,0.039,1.05
								c-0.033,0.005-0.117-0.36-0.228-1.027c-0.112-0.666-0.248-1.634-0.39-2.832c-0.286-2.397-0.571-5.724-0.659-9.412
								c-0.099-3.686,0.094-7.032,0.422-9.431c0.191-1.196,0.347-2.163,0.535-2.816
								C125.928,200.518,126.035,200.161,126.068,200.169z"/>
						</g>
					</g>
				</g>
			</g>
			<g style="opacity:0.3;">
				<g>
					<g>
						<path d="M58.594,214.157c0,0,1.333,12.785,1.746,19.164l3.575-4.406C63.915,228.916,60.409,215.758,58.594,214.157z"/>
					</g>
				</g>
			</g>
			<g style="opacity:0.3;">
				<g>
					<g>
						<path d="M91.583,259.3c-2.461,3.903-4.787,8.66-6.363,12.997c7.19-5.851,12.928-13.472,16.564-21.999
							C97.475,251.949,94.044,255.397,91.583,259.3z"/>
					</g>
				</g>
			</g>
		</g>
		<g>
			<path style="fill:#FF725E;" d="M44.415,285.391c-1.002,0.262-2.002-0.43-2.111-1.46l-4.468-42.248
				c-0.273-2.562,1.362-4.942,3.852-5.605l22.308-5.994l3.724,32.524l-1.658,17.128L44.415,285.391z"/>
		</g>
		<g style="opacity:0.3;">
			<g>
				<path d="M66.062,279.737c-1.377-2.678-0.843-5.841-0.531-8.836c1.441-13.818-4.532-27.25-1.535-40.816
					c0,0,3.059,25.853,3.724,32.524L66.062,279.737z"/>
			</g>
		</g>
		<g>
			<g>
				<path style="fill:#263238;" d="M64.226,233.891c0.004,0.017-0.22,0.093-0.65,0.22c-0.483,0.137-1.111,0.314-1.89,0.534
					c-1.707,0.458-4.075,1.092-6.975,1.87c-1.48,0.389-3.094,0.813-4.823,1.266c-0.868,0.227-1.765,0.46-2.688,0.701
					c-0.94,0.236-1.858,0.448-2.669,1.005c-0.814,0.528-1.541,1.25-2.08,2.111c-0.537,0.862-0.878,1.867-0.803,2.919
					c0.124,2.19,0.251,4.456,0.382,6.778c0.485,9.265,0.924,17.648,1.246,23.79c0.132,3,0.24,5.449,0.318,7.214
					c0.025,0.81,0.045,1.461,0.06,1.963c0.008,0.449,0.004,0.686-0.014,0.687c-0.018,0.001-0.049-0.233-0.09-0.68
					c-0.04-0.5-0.093-1.15-0.158-1.957c-0.118-1.763-0.282-4.209-0.484-7.205c-0.361-6.142-0.854-14.526-1.399-23.791
					c-0.127-2.322-0.251-4.59-0.372-6.781c-0.078-1.151,0.309-2.285,0.891-3.2c0.586-0.925,1.364-1.689,2.242-2.251
					c0.436-0.287,0.912-0.502,1.395-0.669c0.499-0.162,0.953-0.251,1.42-0.376c0.925-0.232,1.824-0.458,2.694-0.676
					c1.735-0.432,3.354-0.835,4.839-1.205c2.917-0.711,5.299-1.291,7.016-1.709c0.79-0.181,1.425-0.327,1.914-0.439
					C63.989,233.915,64.221,233.874,64.226,233.891z"/>
			</g>
		</g>
		<g>
			<g>
				<path style="fill:#263238;" d="M66.529,251.372c0.02,0.068-0.815,0.385-2.189,0.821c-1.374,0.436-3.289,0.985-5.422,1.517
					c-2.134,0.532-4.083,0.947-5.5,1.207c-1.418,0.261-2.304,0.372-2.318,0.303c-0.015-0.072,0.845-0.311,2.239-0.663
					c1.588-0.394,3.425-0.849,5.453-1.352c2.026-0.508,3.861-0.968,5.448-1.366C65.637,251.494,66.508,251.302,66.529,251.372z"/>
			</g>
		</g>
		<g>
			<g>
				<path style="fill:#263238;" d="M66.904,255.048c0.046,0.131-1.992,0.961-4.617,1.623c-2.625,0.668-4.812,0.909-4.834,0.772
					c-0.025-0.146,2.105-0.614,4.706-1.277C64.76,255.51,66.856,254.907,66.904,255.048z"/>
			</g>
		</g>
		<g>
			<g>
				<path style="fill:#EB996E;" d="M155.951,255.881c-0.157,0.009-0.233-3.212-1.531-6.923c-1.281-3.703-2.755-6.562-2.59-6.64
					c0.062-0.031,0.484,0.652,1.082,1.805c0.594,1.153,1.364,2.781,2.002,4.67c0.636,1.888,0.968,3.677,1.069,4.979
					C156.086,255.074,156.012,255.881,155.951,255.881z"/>
			</g>
		</g>
		<g>
			<g>
				<path style="fill:#FFBE9D;" d="M163.005,228.336c0,0-2.165-13.415-1.043-15.535l8.821-10.964c0,0,1.511,2.077,0.873,3.922
					c-0.638,1.845-2.593,4.42-2.593,4.42s5.006-0.13,6.456,1.673c0.512,0.637,0.848,2.485,0.953,3.65
					c0.05,0.554-0.126,1.102-0.476,1.534l-1.257,1.553c2.454,10.372-0.662,12.865-0.662,12.865L163.005,228.336z"/>
			</g>
			<g>
				<g>
					<path style="fill:#EB996E;" d="M172.955,210.557c0.038,0.063-0.235,0.293-0.644,0.68c-0.4,0.392-0.971,0.924-1.241,1.693
						c-0.3,0.794-0.497,1.554-0.595,2.098c-0.111,0.549-0.055,0.876-0.125,0.906c-0.063,0.035-0.265-0.335-0.242-0.939
						c0.009-0.6,0.156-1.404,0.476-2.252c0.327-0.909,1.027-1.466,1.496-1.793C172.571,210.619,172.92,210.496,172.955,210.557z"/>
				</g>
			</g>
			<g>
				<path style="fill:#FFBE9D;" d="M161.64,215.264c0.018-0.372-0.311-0.058-0.641,0.116c-0.33,0.174-0.722,0.8-0.862,1.146
					c-0.581,1.435-0.434,3.136-0.11,4.65c0.442,2.066,1.681,3.244,2.738,5.073"/>
			</g>
			<g>
				<g>
					<path style="fill:#EB996E;" d="M169.412,210.022c0.13,0.127-0.904,1.04-1.784,2.354c-0.422,0.666-0.65,1.347-0.726,1.855
						c-0.083,0.508-0.048,0.842-0.125,0.859c-0.061,0.018-0.233-0.307-0.242-0.885c-0.015-0.574,0.185-1.372,0.653-2.107
						c0.466-0.732,1.037-1.258,1.458-1.605C169.071,210.147,169.363,209.971,169.412,210.022z"/>
				</g>
			</g>
			<g>
				<g>
					<path style="fill:#EB996E;" d="M162.765,224.194c-0.072,0.01-0.226-0.6-0.443-1.592c-0.213-0.992-0.495-2.37-0.689-3.917
						c-0.437-3.107-0.009-5.66,0.137-5.628c0.139,0.019-0.05,2.509,0.38,5.563C162.571,221.669,162.939,224.171,162.765,224.194z"/>
				</g>
			</g>
			<g>
				<g>
					<path style="fill:#EB996E;" d="M175.561,212.057c0.064-0.026,0.347,0.514,0.626,1.448c0.139,0.467,0.283,1.028,0.38,1.674
						c0.111,0.633,0.109,1.444-0.241,2.166c-0.169,0.364-0.418,0.695-0.742,0.928c-0.162,0.12-0.337,0.201-0.527,0.266
						c-0.102,0.029-0.219,0.054-0.363,0.027c-0.146-0.021-0.296-0.146-0.349-0.254c-0.273-0.685-0.363-1.208-0.446-1.709
						c-0.138-0.974-0.066-1.581-0.001-1.581c0.078-0.003,0.138,0.591,0.362,1.511c0.109,0.44,0.284,1.042,0.496,1.533
						c0.025,0.032,0.012,0.03,0.153-0.001c0.122-0.048,0.259-0.112,0.374-0.203c0.236-0.178,0.432-0.436,0.572-0.738
						c0.292-0.618,0.316-1.267,0.236-1.885c-0.066-0.618-0.17-1.178-0.261-1.645C175.648,212.656,175.492,212.084,175.561,212.057z"
						/>
				</g>
			</g>
		</g>
		<g>
			<g>
				<g>
					<g>
						<g>
							<g>
								<g>
									<g>
										<g>
											<g>
												<g>
													<g>
														<g>
															<g>
																<path style="fill:#FF725E;" d="M109.305,453.523v19.849l39.818-0.603c-0.291-4.025-22.05-11.646-22.05-11.646
																	l0.437-7.6H109.305z"/>
															</g>
														</g>
													</g>
												</g>
											</g>
										</g>
									</g>
								</g>
							</g>
							<g style="opacity:0.6;">
								<g>
									<g>
										<g>
											<g>
												<g>
													<g>
														<g>
															<g>
																<g>
																	<path style="fill:#FFFFFF;" d="M115.778,459.327c-0.767,0.235-1.287,1.161-1.096,1.983
																		c0.191,0.822,1.075,1.39,1.847,1.17c0.771-0.22,1.427-1.311,1.151-2.106c-0.276-0.794-1.35-1.402-2.048-0.992"/>
																</g>
															</g>
														</g>
													</g>
												</g>
											</g>
										</g>
									</g>
								</g>
							</g>
							<g>
								<g>
									<g>
										<g>
											<g>
												<g>
													<g>
														<g>
															<g>
																<path style="fill:#263238;" d="M109.305,473.373l0.061-3.419l38.154,0.701c0,0,1.784,0.79,1.603,2.115
																	L109.305,473.373z"/>
															</g>
														</g>
													</g>
												</g>
											</g>
										</g>
									</g>
								</g>
							</g>
							<g>
								<g>
									<g>
										<g>
											<g>
												<g>
													<g>
														<g>
															<g>
																<g>
																	<path style="fill:#263238;" d="M127.071,461.507c-0.003,0.206-0.974,0.314-1.921,0.991
																		c-0.964,0.65-1.444,1.55-1.624,1.471c-0.18-0.037,0.092-1.273,1.253-2.071
																		C125.932,461.09,127.111,461.318,127.071,461.507z"/>
																</g>
															</g>
														</g>
													</g>
												</g>
											</g>
										</g>
									</g>
								</g>
							</g>
							<g>
								<g>
									<g>
										<g>
											<g>
												<g>
													<g>
														<g>
															<g>
																<g>
																	<path style="fill:#263238;" d="M132.316,463.344c0.047,0.199-0.79,0.562-1.438,1.443
																		c-0.672,0.861-0.826,1.805-1.019,1.799c-0.182,0.035-0.334-1.169,0.491-2.248
																		C131.166,463.251,132.309,463.148,132.316,463.344z"/>
																</g>
															</g>
														</g>
													</g>
												</g>
											</g>
										</g>
									</g>
								</g>
							</g>
							<g>
								<g>
									<g>
										<g>
											<g>
												<g>
													<g>
														<g>
															<g>
																<g>
																	<path style="fill:#263238;" d="M134.675,468.402c-0.176,0.047-0.461-0.978,0.022-2.113
																		c0.476-1.139,1.386-1.598,1.471-1.428c0.112,0.168-0.469,0.782-0.853,1.72
																		C134.911,467.51,134.868,468.379,134.675,468.402z"/>
																</g>
															</g>
														</g>
													</g>
												</g>
											</g>
										</g>
									</g>
								</g>
							</g>
							<g>
								<g>
									<g>
										<g>
											<g>
												<g>
													<g>
														<g>
															<g>
																<g>
																	<path style="fill:#263238;" d="M126.683,455.863c-0.079,0.189-0.975-0.082-2.073,0.014
																		c-1.1,0.072-1.949,0.476-2.053,0.301c-0.115-0.147,0.709-0.922,2.004-1.016
																		C125.854,455.058,126.776,455.7,126.683,455.863z"/>
																</g>
															</g>
														</g>
													</g>
												</g>
											</g>
										</g>
									</g>
								</g>
							</g>
						</g>
					</g>
				</g>
			</g>
			<g>
				<g>
					<g>
						<g>
							<path style="fill:#263238;" d="M126.899,461.475c0.029,0.004,0.131-0.423,0.086-1.213c-0.057-0.779-0.295-1.942-1.06-3.129
								c-0.387-0.585-0.893-1.171-1.566-1.648c-0.325-0.227-0.832-0.477-1.351-0.236c-0.486,0.233-0.761,0.777-0.788,1.307
								c0.051,2.043,1.518,3.927,3.517,4.644c2.051,0.718,4.219-0.169,5.406-1.605c0.291-0.366,0.571-0.737,0.718-1.225
								c0.067-0.238,0.1-0.52,0.006-0.794c-0.091-0.27-0.305-0.485-0.544-0.574c-0.483-0.165-0.894-0.02-1.248,0.123
								c-0.347,0.167-0.646,0.34-0.931,0.531c-1.135,0.756-1.86,1.631-2.288,2.265c-0.43,0.639-0.579,1.047-0.552,1.063
								c0.09,0.092,0.828-1.567,3.047-2.962c0.536-0.307,1.237-0.749,1.804-0.552c0.248,0.102,0.347,0.393,0.228,0.742
								c-0.105,0.342-0.361,0.689-0.629,1.011c-1.083,1.27-3.042,2.041-4.84,1.404c-1.776-0.598-3.116-2.403-3.169-4.034
								c0.009-0.378,0.205-0.725,0.472-0.859c0.256-0.137,0.593-0.022,0.892,0.177c0.615,0.411,1.111,0.944,1.49,1.473
								c0.757,1.08,1.046,2.166,1.167,2.908C126.875,461.041,126.85,461.472,126.899,461.475z"/>
						</g>
					</g>
				</g>
			</g>
		</g>
		<g>
			<g>
				<g>
					<g>
						<g>
							<g>
								<g>
									<g>
										<polygon style="fill:#FF725E;" points="93.905,453.173 94.724,459.348 94.176,473.28 76.029,473.723 75.383,459.348 
											76.146,453.173 										"/>
									</g>
								</g>
							</g>
						</g>
					</g>
				</g>
				<g>
					<g>
						<g>
							<g>
								<g>
									<g>
										<g>
											<path style="fill:#263238;" d="M85.204,472.231c-0.11,0.006,0.151-4.256,0.583-9.517
												c0.432-5.263,0.872-9.533,0.983-9.539c0.11-0.006-0.151,4.255-0.583,9.518C85.755,467.954,85.315,472.225,85.204,472.231
												z"/>
										</g>
									</g>
								</g>
							</g>
						</g>
					</g>
				</g>
				<g>
					<g>
						<g>
							<g>
								<g>
									<g>
										<polygon style="fill:#263238;" points="94.166,470.961 76.014,471.343 76.029,473.723 94.176,473.28 										"/>
									</g>
								</g>
							</g>
						</g>
					</g>
				</g>
				<g>
					<g>
						<g>
							<g>
								<g>
									<g>
										<g>
											<path style="fill:#263238;" d="M75.96,462.951c-0.028-0.021,0.128-0.289,0.464-0.735
												c0.337-0.446,0.871-1.059,1.618-1.731c0.747-0.668,1.718-1.394,2.931-1.968c1.201-0.583,2.665-0.995,4.23-0.98
												c3.139,0.004,5.779,1.541,7.079,3.073c0.675,0.756,1.091,1.467,1.329,1.974c0.233,0.51,0.32,0.809,0.289,0.822
												c-0.099,0.055-0.537-1.134-1.9-2.528c-1.319-1.4-3.824-2.783-6.803-2.791c-2.969-0.016-5.415,1.484-6.902,2.695
												C76.775,462.02,76.036,463.014,75.96,462.951z"/>
										</g>
									</g>
								</g>
							</g>
						</g>
					</g>
				</g>
			</g>
		</g>
	</g>
</g>
<g id="Plant">
	<g>
		<g>
			<g>
				<path style="fill:#FF725E;" d="M418.027,448.095c-2.372-0.118-3.07-3.468-2.187-5.673c0.884-2.205,2.631-4.167,2.655-6.542
					c0.021-2.061-1.288-3.934-1.413-5.992c-0.226-3.712,3.36-6.738,3.513-10.454c0.119-2.896-1.891-5.655-1.404-8.512
					c0.522-3.067,3.722-5.08,4.455-8.103c0.781-3.219-1.452-6.623-0.596-9.823c0.852-3.188,4.609-5.527,4.074-8.783
					c-0.177-1.077-0.826-2.019-1.117-3.071c-0.673-2.429,0.653-4.963,2.26-6.905c1.607-1.941,3.576-3.665,4.568-5.981
					c1.525-3.56,0.465-7.893,2.267-11.322c1.5-2.854,4.838-4.775,5.258-7.972c1.693,2.877,0.038,6.54,0.423,9.856
					c0.251,2.162,1.371,4.112,2.059,6.177c1.405,4.212,0.934,9.012-1.263,12.871c-1.452,2.55-3.689,4.956-3.575,7.888
					c0.138,3.55,3.69,6.124,4.317,9.621c0.897,5.003-4.432,9.502-3.694,14.531c0.19,1.297,0.783,2.518,0.895,3.825
					c0.379,4.445-4.664,7.586-5.431,11.981c-0.564,3.235,1.305,6.577,0.532,9.768c-0.596,2.46-2.72,4.664-2.198,7.141
					c0.226,1.074,0.931,1.977,1.358,2.988c0.815,1.932,0.507,4.331-0.891,5.894c-1.398,1.563-3.859,2.12-5.732,1.177"/>
			</g>
		</g>
		<g style="opacity:0.5;">
			<g>
				<g>
					<path style="fill:#FFFFFF;" d="M433.783,445.61c-0.427-1.011-1.131-1.915-1.358-2.988c-0.522-2.477,1.603-4.681,2.198-7.141
						c0.773-3.191-1.097-6.533-0.532-9.768c0.767-4.395,5.81-7.536,5.431-11.981c-0.111-1.306-0.704-2.527-0.895-3.824
						c-0.737-5.029,4.591-9.528,3.694-14.531c-0.627-3.497-4.179-6.071-4.317-9.621c-0.114-2.932,2.123-5.338,3.575-7.888
						c2.196-3.859,2.667-8.659,1.263-12.871c-0.688-2.065-1.808-4.015-2.059-6.177c-0.385-3.316,1.27-6.979-0.423-9.856
						c-0.42,3.197-3.758,5.118-5.258,7.972c-1.802,3.429-0.742,7.761-2.267,11.322c-0.992,2.317-2.961,4.04-4.568,5.982
						c-1.607,1.941-2.932,4.476-2.26,6.904c0.291,1.052,0.94,1.994,1.117,3.071c0.535,3.256-3.221,5.596-4.074,8.783
						c-0.856,3.2,1.377,6.604,0.596,9.823c-0.733,3.023-3.933,5.037-4.455,8.103c-0.487,2.857,1.523,5.616,1.404,8.512
						c-0.153,3.716-3.739,6.742-3.513,10.454c0.125,2.057,1.434,3.93,1.413,5.992c-0.024,2.375-1.772,4.337-2.655,6.542
						c-0.884,2.205-0.186,5.555,2.187,5.673l9.133,4.586c1.873,0.943,4.334,0.385,5.732-1.178
						C434.29,449.941,434.598,447.541,433.783,445.61z"/>
				</g>
			</g>
		</g>
		<g>
			<g>
				<path style="fill:#FF725E;" d="M430.686,443.438c-0.497-0.82-1.09-2.541-0.916-3.512c0.244-1.358,2.541-2.552,3.112-4.856
					c0.741-2.989-0.596-8.276-0.026-11.291c0.774-4.097,5.013-6.793,4.839-10.861c-0.051-1.196,0.117-4.392,0.001-5.575
					c-0.453-4.583,3.572-7.66,2.986-12.208c-0.41-3.179-3.706-6.905-3.709-10.165c-0.002-2.693,1.927-5.053,3.21-7.496
					c1.941-3.696,2.482-8.147,1.451-11.934c-0.506-1.857-1.372-3.58-1.512-5.554c-0.215-3.028,1.272-6.509-0.041-9.048
					c-0.449,2.971-3.275,4.956-4.608,7.682c-1.601,3.274-0.859,7.195-2.235,10.572c-0.895,2.197-2.581,3.912-3.973,5.804
					c-1.392,1.892-2.57,4.312-2.09,6.504c0.208,0.95,0.716,1.775,0.829,2.755c0.341,2.964-2.845,5.361-3.652,8.352
					c-0.81,3.002,0.933,5.992,0.185,9.007c-0.703,2.831-3.474,6.678-4.004,9.535c-0.493,2.663,1.92,4.395,1.73,7.07
					c-0.243,3.431-3.683,7.584-3.612,10.987c0.039,1.886,1.617,2.491,1.535,4.391c-0.095,2.189-1.927,6.538-2.728,8.626
					c-0.802,2.088-0.751,3.698,0.569,5.874l10.199,5.059C432.779,450.985,432.577,446.559,430.686,443.438z"/>
			</g>
		</g>
		<g>
			<g>
				<g>
					<path style="fill:#263238;" d="M437.541,366.444c0.007,0,0.013,0.077,0.017,0.226c0.002,0.173,0.004,0.391,0.007,0.663
						c-0.005,0.582-0.005,1.443-0.105,2.549c-0.106,1.1-0.289,2.472-0.92,3.938c-0.6,1.497-1.869,2.838-3.071,4.377
						c-0.589,0.78-1.167,1.641-1.453,2.663c-0.312,1.006-0.446,2.117-0.37,3.264c0.11,2.303,0.82,4.7,1.155,7.315
						c0.157,1.304,0.21,2.69-0.132,4.057c-0.156,0.686-0.456,1.341-0.799,1.968c-0.367,0.61-0.796,1.168-1.075,1.79
						c-0.581,1.252-0.355,2.725-0.061,4.139c0.146,0.717,0.308,1.446,0.395,2.202c0.096,0.757,0.048,1.535-0.058,2.295
						c-0.246,1.527-0.821,2.935-1.405,4.284c-0.584,1.351-1.185,2.664-1.576,4.013c-0.398,1.35-0.5,2.719-0.353,4.073
						c0.116,1.35,0.327,2.707,0.143,4.045c-0.182,1.341-0.753,2.529-1.287,3.641c-0.539,1.113-1.061,2.194-1.285,3.31
						c-0.431,2.252,0.208,4.413,0.162,6.412c-0.026,2.025-0.698,3.739-1.173,5.224c-0.499,1.486-0.897,2.78-0.996,3.874
						c-0.105,1.091,0.049,1.946,0.257,2.484c0.207,0.537,0.366,0.803,0.344,0.814c0,0-0.185-0.248-0.421-0.785
						c-0.237-0.537-0.422-1.411-0.339-2.527c0.076-1.118,0.458-2.437,0.937-3.931c0.456-1.493,1.096-3.198,1.101-5.155
						c0.001-0.977-0.136-2-0.247-3.077c-0.106-1.074-0.189-2.226,0.042-3.4c0.441-2.364,2.172-4.388,2.531-6.934
						c0.171-1.267-0.035-2.593-0.158-3.962c-0.155-1.369-0.052-2.833,0.357-4.218c0.782-2.778,2.475-5.309,2.962-8.25
						c0.101-0.73,0.147-1.462,0.056-2.186c-0.082-0.726-0.24-1.444-0.387-2.166c-0.291-1.417-0.55-2.993,0.094-4.385
						c0.309-0.678,0.749-1.246,1.102-1.83c0.325-0.595,0.61-1.207,0.759-1.858c0.328-1.295,0.286-2.635,0.136-3.917
						c-0.317-2.571-1.021-4.987-1.12-7.345c-0.07-1.174,0.074-2.331,0.409-3.377c0.309-1.066,0.92-1.958,1.524-2.741
						c1.238-1.553,2.489-2.847,3.091-4.293c0.635-1.421,0.842-2.773,0.971-3.862c0.123-1.095,0.149-1.954,0.181-2.535
						c0.014-0.272,0.025-0.49,0.034-0.662C437.526,366.52,437.534,366.444,437.541,366.444z"/>
				</g>
			</g>
		</g>
		<g>
			<g>
				<path style="fill:#FF725E;" d="M403.457,449.26c-3.319,0.486-5.204-3.964-4.583-7.261c0.62-3.297,2.504-6.493,1.887-9.79
					c-0.535-2.861-2.862-5.098-3.599-7.914c-1.33-5.081,2.81-10.256,2.004-15.446c-0.628-4.045-4.168-7.317-4.277-11.409
					c-0.116-4.392,3.765-8.058,3.953-12.447c0.2-4.674-3.826-8.779-3.517-13.446c0.308-4.65,4.871-8.92,3.238-13.285
					c-0.54-1.444-1.697-2.571-2.389-3.949c-1.597-3.181-0.455-7.055,1.24-10.185c1.694-3.13,3.95-6.057,4.691-9.538
					c1.138-5.35-1.517-11.063,0.04-16.307c1.296-4.365,5.394-7.941,5.101-12.485c3.134,3.522,1.844,9.051,3.286,13.539
					c0.94,2.927,3.026,5.322,4.545,7.994c3.1,5.451,3.762,12.231,1.776,18.179c-1.313,3.931-3.753,7.877-2.792,11.908
					c1.163,4.88,6.789,7.474,8.616,12.146c2.614,6.686-3.537,14.378-1.138,21.144c0.619,1.745,1.775,3.274,2.287,5.054
					c1.743,6.055-4.384,11.788-4.243,18.087c0.104,4.636,3.61,8.754,3.413,13.387c-0.152,3.572-2.491,7.207-1.09,10.495
					c0.608,1.426,1.831,2.485,2.7,3.768c1.659,2.453,1.889,5.862,0.38,8.41c-1.509,2.548-4.766,3.994-7.618,3.201"/>
			</g>
		</g>
		<g style="opacity:0.5;">
			<g>
				<g>
					<path style="fill:#FFFFFF;" d="M424.606,441.5c-0.868-1.284-2.092-2.343-2.7-3.768c-1.402-3.289,0.938-6.924,1.09-10.495
						c0.197-4.633-3.309-8.751-3.413-13.387c-0.141-6.299,5.985-12.033,4.243-18.087c-0.512-1.779-1.668-3.308-2.287-5.054
						c-2.399-6.766,3.751-14.458,1.138-21.144c-1.827-4.673-7.453-7.266-8.616-12.146c-0.961-4.031,1.48-7.977,2.792-11.908
						c1.986-5.948,1.324-12.728-1.776-18.178c-1.52-2.672-3.605-5.068-4.545-7.994c-1.442-4.488-0.152-10.017-3.286-13.539
						c0.293,4.544-3.805,8.12-5.101,12.485c-1.557,5.244,1.098,10.956-0.04,16.306c-0.741,3.481-2.996,6.409-4.691,9.539
						c-1.694,3.13-2.836,7.004-1.239,10.185c0.692,1.378,1.849,2.505,2.389,3.949c1.633,4.365-2.93,8.635-3.238,13.285
						c-0.309,4.667,3.717,8.773,3.517,13.446c-0.188,4.389-4.069,8.055-3.953,12.447c0.108,4.092,3.648,7.364,4.277,11.409
						c0.806,5.19-3.334,10.365-2.004,15.446c0.737,2.816,3.064,5.053,3.599,7.914c0.617,3.297-1.267,6.494-1.887,9.79
						c-0.62,3.297,1.264,7.747,4.584,7.261l13.91,3.852c2.853,0.793,6.11-0.654,7.618-3.201
						C426.495,447.362,426.265,443.953,424.606,441.5z"/>
				</g>
			</g>
		</g>
		<g>
			<g>
				<path style="fill:#FF725E;" d="M419.72,439.339c-0.913-1-2.206-3.222-2.23-4.615c-0.034-1.949,2.821-4.232,2.981-7.58
					c0.208-4.344-3.092-11.303-3.129-15.636c-0.05-5.888,5.085-10.784,3.729-16.373c-0.398-1.643-1.041-6.118-1.526-7.724
					c-1.883-6.225,2.851-11.591,0.792-17.732c-1.438-4.292-7.026-8.551-7.923-13.067c-0.74-3.73,1.286-7.529,2.395-11.264
					c1.677-5.652,1.208-11.967-1.258-16.932c-1.209-2.434-2.881-4.584-3.616-7.281c-1.128-4.137-0.021-9.366-2.535-12.524
					c0.192,4.239-3.18,7.764-4.28,11.904c-1.321,4.974,0.78,10.203-0.201,15.259c-0.638,3.289-2.504,6.127-3.915,9.13
					c-1.411,3.003-2.38,6.678-1.114,9.584c0.549,1.259,1.478,2.263,1.903,3.59c1.284,4.012-2.473,8.207-2.772,12.572
					c-0.3,4.381,2.934,8.046,2.723,12.428c-0.198,4.115-2.985,10.203-2.936,14.307c0.046,3.824,3.863,5.564,4.333,9.321
					c0.603,4.821-3.025,11.516-1.995,16.212c0.571,2.603,2.923,3.009,3.329,5.663c0.468,3.058-0.878,9.586-1.417,12.698
					c-0.539,3.112-0.027,5.329,2.397,7.983l15.516,4.216C424.687,449.223,423.195,443.145,419.72,439.339z"/>
			</g>
		</g>
		<g>
			<g>
				<g>
					<path style="fill:#263238;" d="M408.13,330.79c0,0,0.435,1.677,0.797,4.789c0.149,1.551,0.266,3.499-0.209,5.694
						c-0.233,1.096-0.656,2.227-1.219,3.359c-0.556,1.136-1.23,2.285-1.844,3.531c-0.606,1.243-1.176,2.601-1.296,4.106
						c-0.16,1.488-0.042,3.074,0.378,4.648c0.783,3.172,2.423,6.303,3.599,9.826c0.573,1.759,1.022,3.657,0.923,5.629
						c-0.028,0.985-0.263,1.966-0.564,2.921c-0.34,0.94-0.783,1.833-1.003,2.784c-0.469,1.924,0.258,3.922,1.053,5.803
						c0.399,0.954,0.822,1.918,1.147,2.935c0.338,1.016,0.484,2.097,0.545,3.174c0.076,2.169-0.332,4.272-0.771,6.299
						c-0.438,2.03-0.913,4.018-1.085,6.002c-0.073,0.99-0.093,1.977,0.026,2.941c0.094,0.966,0.344,1.904,0.605,2.829
						c0.532,1.843,1.194,3.658,1.305,5.548c0.116,1.892-0.346,3.687-0.78,5.373c-0.44,1.689-0.868,3.336-0.872,4.956
						c-0.009,1.619,0.398,3.158,0.828,4.611c0.436,1.455,0.902,2.853,1.164,4.239c0.277,1.387,0.27,2.744,0.193,4.002
						c-0.082,1.261-0.235,2.441-0.375,3.541c-0.28,2.196-0.473,4.103-0.305,5.649c0.158,1.544,0.613,2.69,1.055,3.376
						c0.44,0.686,0.737,1.007,0.714,1.025c0,0-0.316-0.301-0.784-0.981c-0.469-0.68-0.958-1.839-1.143-3.403
						c-0.195-1.566-0.022-3.493,0.236-5.694c0.129-1.102,0.271-2.278,0.342-3.528c0.067-1.248,0.064-2.577-0.217-3.932
						c-0.266-1.359-0.735-2.742-1.182-4.203c-0.44-1.458-0.866-3.025-0.865-4.703c-0.003-1.677,0.43-3.356,0.863-5.045
						c0.429-1.687,0.87-3.446,0.753-5.26c-0.111-1.817-0.762-3.604-1.305-5.463c-0.265-0.933-0.523-1.892-0.623-2.891
						c-0.124-0.996-0.106-2.009-0.032-3.021c0.174-2.025,0.652-4.03,1.087-6.054c0.437-2.021,0.835-4.093,0.76-6.197
						c-0.06-1.045-0.198-2.082-0.525-3.066c-0.315-0.989-0.732-1.942-1.133-2.902c-0.397-0.96-0.791-1.928-1.018-2.949
						c-0.242-1.013-0.285-2.086-0.049-3.102c0.238-1.012,0.691-1.916,1.021-2.828c0.29-0.92,0.518-1.856,0.546-2.806
						c0.1-1.899-0.329-3.753-0.891-5.492c-1.149-3.483-2.786-6.634-3.569-9.862c-0.419-1.602-0.536-3.234-0.362-4.767
						c0.133-1.552,0.73-2.947,1.35-4.197c0.63-1.255,1.311-2.398,1.87-3.518c0.566-1.117,0.989-2.219,1.229-3.293
						c0.488-2.152,0.398-4.084,0.274-5.629c-0.135-1.552-0.339-2.749-0.46-3.561c-0.06-0.391-0.107-0.697-0.143-0.924
						C408.135,330.899,408.123,330.791,408.13,330.79z"/>
				</g>
			</g>
		</g>
		<g>
			<g>
				<path style="fill:#FF725E;" d="M401.379,451.445c-1.893,0.932-3.881-1.367-4.147-3.46c-0.266-2.093,0.244-4.37-0.763-6.224
					c-0.873-1.609-2.698-2.498-3.684-4.041c-1.778-2.784-0.3-6.681-1.786-9.632c-1.158-2.299-3.909-3.573-4.765-6.002
					c-0.918-2.606,0.696-5.55-0.04-8.214c-0.784-2.836-3.987-4.514-4.704-7.368c-0.715-2.842,1.191-6.28-0.63-8.577
					c-0.602-0.76-1.513-1.21-2.193-1.901c-1.571-1.595-1.636-4.134-1.227-6.335c0.409-2.201,1.194-4.389,0.964-6.615
					c-0.353-3.422-3.046-6.328-3.128-9.767c-0.068-2.863,1.694-5.795,0.64-8.458c2.556,1.502,2.853,5.061,4.584,7.468
					c1.129,1.57,2.84,2.6,4.265,3.906c2.909,2.663,4.615,6.593,4.577,10.536c-0.026,2.606-0.724,5.44,0.631,7.667
					c1.639,2.696,5.508,3.161,7.505,5.604c2.857,3.496,0.662,9.289,3.406,12.875c0.708,0.925,1.695,1.617,2.346,2.583
					c2.213,3.287-0.345,7.902,0.957,11.645c0.958,2.754,3.853,4.542,4.63,7.353c0.599,2.167-0.098,4.795,1.376,6.492
					c0.639,0.736,1.576,1.133,2.344,1.734c1.467,1.147,2.263,3.143,1.853,4.96c-0.411,1.816-2.08,3.312-3.941,3.388"/>
			</g>
		</g>
		<g style="opacity:0.5;">
			<g>
				<g>
					<path style="fill:#FFFFFF;" d="M412.537,442.714c-0.768-0.601-1.705-0.998-2.344-1.734c-1.474-1.697-0.777-4.325-1.376-6.492
						c-0.778-2.811-3.672-4.598-4.63-7.353c-1.302-3.743,1.257-8.358-0.957-11.645c-0.651-0.966-1.638-1.658-2.346-2.583
						c-2.744-3.585-0.549-9.378-3.406-12.875c-1.996-2.444-5.865-2.908-7.505-5.604c-1.354-2.227-0.656-5.06-0.631-7.667
						c0.039-3.944-1.668-7.873-4.577-10.536c-1.426-1.306-3.137-2.336-4.265-3.906c-1.731-2.408-2.027-5.966-4.584-7.468
						c1.054,2.663-0.708,5.595-0.64,8.458c0.082,3.439,2.775,6.345,3.128,9.767c0.23,2.227-0.555,4.415-0.964,6.616
						c-0.409,2.201-0.344,4.74,1.227,6.335c0.68,0.691,1.59,1.142,2.193,1.901c1.821,2.297-0.085,5.734,0.63,8.577
						c0.717,2.853,3.92,4.532,4.704,7.368c0.736,2.663-0.878,5.608,0.04,8.214c0.856,2.428,3.607,3.702,4.765,6.002
						c1.486,2.95,0.008,6.848,1.786,9.632c0.986,1.543,2.81,2.432,3.684,4.041c1.007,1.854,0.497,4.131,0.763,6.224
						c0.266,2.093,2.254,4.392,4.147,3.46l9.07-0.383c1.861-0.077,3.53-1.572,3.941-3.389
						C414.801,445.857,414.004,443.861,412.537,442.714z"/>
				</g>
			</g>
		</g>
		<g>
			<g>
				<path style="fill:#FF725E;" d="M409.195,442.364c-0.74-0.422-1.943-1.502-2.227-2.331c-0.397-1.16,0.87-3.078,0.319-5.113
					c-0.715-2.64-4.035-6.167-4.895-8.753c-1.168-3.514,0.959-7.437-0.933-10.52c-0.556-0.906-1.805-3.46-2.406-4.328
					c-2.33-3.362-0.534-7.488-2.953-10.766c-1.69-2.291-5.858-3.76-7.267-6.289c-1.164-2.089-0.686-4.755-0.744-7.204
					c-0.089-3.707-1.59-7.395-4.026-9.89c-1.194-1.223-2.61-2.186-3.572-3.659c-1.474-2.258-1.823-5.601-3.938-7.006
					c0.934,2.5-0.403,5.261-0.26,7.952c0.171,3.233,2.439,5.956,2.829,9.171c0.254,2.092-0.314,4.151-0.579,6.221
					c-0.264,2.07-0.134,4.457,1.186,5.951c0.572,0.647,1.322,1.068,1.833,1.781c1.544,2.153,0.106,5.39,0.771,8.06
					c0.667,2.68,3.311,4.248,4.032,6.911c0.677,2.501,0.186,6.684,1.009,9.13c0.767,2.28,3.387,2.583,4.395,4.741
					c1.292,2.769,0.415,7.477,1.939,10.088c0.845,1.447,2.331,1.236,3.087,2.746c0.871,1.74,1.327,5.907,1.606,7.874
					c0.279,1.966,1.013,3.194,2.977,4.314l10.101-0.476C414.078,447.32,412.011,443.97,409.195,442.364z"/>
			</g>
		</g>
		<g>
			<g>
				<g>
					<path style="fill:#263238;" d="M381.278,379.638c0.006-0.003,0.044,0.053,0.113,0.167c0.078,0.136,0.175,0.304,0.293,0.511
						c0.249,0.453,0.622,1.121,1.024,2.023c0.394,0.899,0.846,2.044,0.99,3.456c0.182,1.423-0.224,3.015-0.491,4.727
						c-0.12,0.859-0.196,1.774,0.023,2.688c0.192,0.913,0.567,1.831,1.121,2.687c1.078,1.737,2.664,3.291,4.056,5.178
						c0.686,0.945,1.327,2,1.654,3.213c0.176,0.601,0.226,1.242,0.231,1.879c-0.022,0.634-0.113,1.251-0.062,1.851
						c0.089,1.214,0.896,2.255,1.735,3.226c0.423,0.493,0.864,0.99,1.258,1.54c0.402,0.548,0.703,1.174,0.949,1.812
						c0.469,1.295,0.631,2.638,0.76,3.938c0.13,1.301,0.23,2.579,0.508,3.793c0.273,1.218,0.783,2.32,1.481,3.307
						c0.672,0.998,1.422,1.961,1.859,3.083c0.439,1.124,0.508,2.295,0.573,3.388c0.062,1.097,0.123,2.159,0.429,3.12
						c0.634,1.928,2.062,3.331,2.89,4.905c0.855,1.587,1.072,3.209,1.344,4.567c0.253,1.369,0.501,2.545,0.895,3.436
						c0.387,0.891,0.874,1.489,1.267,1.817c0.391,0.328,0.628,0.467,0.616,0.487c0,0-0.253-0.11-0.669-0.424
						c-0.417-0.314-0.94-0.913-1.359-1.816c-0.425-0.902-0.699-2.091-0.974-3.457c-0.292-1.356-0.532-2.954-1.372-4.471
						c-0.814-1.523-2.266-2.908-2.96-4.941c-0.68-2.031-0.212-4.351-1.03-6.473c-0.413-1.053-1.145-1.993-1.832-3.002
						c-0.712-0.996-1.267-2.182-1.547-3.436c-0.594-2.498-0.372-5.193-1.262-7.68c-0.236-0.609-0.515-1.195-0.897-1.716
						c-0.376-0.527-0.808-1.015-1.234-1.512c-0.837-0.974-1.724-2.09-1.825-3.457c-0.053-0.663,0.044-1.295,0.065-1.899
						c-0.004-0.6-0.048-1.196-0.212-1.764c-0.303-1.143-0.913-2.163-1.581-3.092c-1.354-1.857-2.943-3.43-4.039-5.22
						c-0.562-0.883-0.95-1.845-1.142-2.805c-0.221-0.964-0.13-1.922,0.001-2.792c0.292-1.742,0.705-3.283,0.549-4.663
						c-0.119-1.375-0.54-2.513-0.909-3.414c-0.376-0.903-0.725-1.582-0.95-2.047c-0.104-0.214-0.189-0.388-0.257-0.529
						C381.297,379.705,381.271,379.642,381.278,379.638z"/>
				</g>
			</g>
		</g>
		<g>
			<g>
				<polygon style="fill:#455A64;" points="386.878,443.457 390.805,451.445 438.666,451.445 444.065,443.457 				"/>
			</g>
		</g>
		<g>
			<g>
				<polygon style="fill:#455A64;" points="391.952,448.694 399.116,473.427 431.354,473.454 437.848,448.737 				"/>
			</g>
		</g>
		<g>
			<g>
				<g>
					<path style="fill:#263238;" d="M438.453,451.387c0,0.113-10.679,0.205-23.849,0.205c-13.175,0-23.851-0.092-23.851-0.205
						c0-0.113,10.676-0.205,23.851-0.205C427.774,451.182,438.453,451.274,438.453,451.387z"/>
				</g>
			</g>
		</g>
	</g>
</g>
<g id="Floor">
	<g>
		<g>
			<path style="fill:#263238;" d="M442.304,473.454c0,0.144-88.612,0.26-197.896,0.26c-109.321,0-197.915-0.117-197.915-0.26
				s88.593-0.26,197.915-0.26C353.692,473.194,442.304,473.31,442.304,473.454z"/>
		</g>
	</g>
</g>
</svg>
